<?xml version="1.0" standalone="no"?>
<!DOCTYPE svg PUBLIC "-//W3C//DTD SVG 1.1//EN" "http://www.w3.org/Graphics/SVG/1.1/DTD/svg11.dtd">
<svg xmlns="http://www.w3.org/2000/svg">
<defs>
<font id="icofont" horiz-adv-x="1000" >
<font-face font-family="IcoFont" font-weight="400" font-style="Regular" units-per-em="1000" ascent="850" descent="-150" />
<missing-glyph horiz-adv-x="1000" />
<glyph glyph-name="air-balloon" horiz-adv-x="1000" unicode="&#xee0c;" d="M784 481c-16 0-31 1-46 0-13 0-18-4-19-14 0-11 6-16 18-16 12-1 23 0 35-1 10 0 10 0 8-10-9-42-31-78-56-112-31-41-64-81-94-122-15-20-26-43-39-65-3-5-4-11-12-12-1 0-4-4-4-6-3-23-6-45-8-67-1-2-1-5-1-7-2-12-2-12 9-14 2-1 6-4 6-7 0-36 0-72 0-108 0-6-3-7-8-7-45 0-90 0-135 0-5 0-8 2-8 7 1 36 1 72 0 107 0 6 2 8 8 8 6 0 7 4 6 9-3 26-5 51-8 77 0 5-2 8-8 9-2 0-6 3-7 6-19 41-46 75-76 109-28 33-56 65-83 98-22 28-35 59-42 94-1 2-1 4-1 6-1 2 0 4 0 7 3 0 7 0 10 0 13 0 25 0 37 1 9 0 16 8 16 16-1 8-7 14-17 14-13 1-27 1-41 0-6 0-9 3-8 9 6 90 38 167 105 228 39 35 85 58 137 66 50 8 98 2 145-18 75-33 125-88 156-163 15-35 23-72 25-110 0-3 0-7 0-12z m-241-398c0 13 0 25 0 38 0 7-1 9-8 9-20 0-40 0-61 0-7 0-9-3-9-10 0-25 0-51 0-76 0-7 2-9 9-9 20 0 40 0 61 0 7 0 9 2 8 9 0 13 0 26 0 39z m23 418c12 0 25 0 37 1 10 0 17 6 17 15 0 9-7 16-17 16-24 0-48 0-72 0-10 0-17-7-17-16 0-9 7-15 18-15 11-1 23-1 34-1z m136 0c12 0 24 0 36 1 11 0 17 6 17 15 0 10-7 16-17 16-24 0-48 0-72 0-10 0-17-7-17-16 1-9 7-15 18-15 12-1 23-1 35-1z m-406 0c12 0 24 0 36 0 11 1 16 6 17 15 0 10-6 16-16 17-24 0-49 0-73 0-10 0-16-7-16-16 0-10 6-15 17-16 11 0 23 0 35 0z m338-20c-12 0-24 1-36 0-10 0-16-6-16-15-1-8 6-15 15-15 25-1 50-1 75 0 10 0 15 6 15 15 0 10-6 15-16 15-12 1-25 0-37 0z m-203 20c12 0 23 0 35 0 12 1 18 6 18 16 0 10-6 16-18 16-23 0-46 0-68 0-12 0-19-7-19-16 0-10 7-15 18-16 11 0 23 0 34 0z m68-20c-11 0-23 1-34 0-11 0-19-6-19-15 0-8 7-15 17-15 24-1 49-1 73 0 11 0 17 7 16 16 0 9-6 14-17 15-12 0-24-1-36-1z m-134 0c-12 0-24 1-36 0-4 0-8-1-12-3-6-4-6-10-5-17 2-8 9-11 17-11 23 0 47 0 70 0 12 0 17 6 17 16 0 10-5 15-17 15-11 1-23 0-34 0z m184-399c0-12-1-25 0-38 0-3 3-6 4-9 2 3 6 5 6 8 4 26 7 52 10 78 1 6 0 9-7 9-6-1-14 2-13-9 0-13 0-26 0-39z m-89 0c0 13 0 27 0 40 0 9-6 7-12 8-6 0-7-3-7-9 3-26 6-52 8-78 1-3 4-5 6-8 1 3 4 6 5 8 0 13 0 26 0 39z" />
<glyph glyph-name="airplane-alt" horiz-adv-x="1000" unicode="&#xee0d;" d="M810 767l-149-154c-10-10-30-15-43-10l-322 105c-14 5-34 0-44-10l-84-84c-10-10-8-24 6-30l294-135c13-6 15-19 5-30l-198-205c-3-2-6-5-8-8-4-4-18-3-31 3l-92 43c-14 6-33 2-43-8l-23-23c-11-11-9-25 3-33l117-72c12-8 31-22 41-33l4-3c10-11 25-29 33-41l78-116c8-13 23-14 33-4l19 19c11 11 14 30 8 43l-56 120c-6 13-9 25-6 27 2 2 3 3 5 4l209 203c10 10 20 18 21 17 1-1 7-13 13-26l155-306c6-13 20-16 30-5l75 75c11 10 15 30 11 43l-118 348c-5 14-9 25-9 25s8 9 19 19l146 143c28 27 28 72 0 99-27 27-72 27-99 0z" />
<glyph glyph-name="airplane" horiz-adv-x="1000" unicode="&#xee0e;" d="M937 150c0 42 1 81 0 120 0 5-6 10-10 14-114 91-228 182-342 272-11 8-16 17-15 31 1 33 0 67 0 100 0 43-30 74-70 74h0c-40 0-69-31-70-74 0-33-1-67 0-100 1-14-4-23-15-31-114-90-228-181-342-272-4-4-10-9-10-14-1-39 0-78 0-120l367 186c0-70 0-137 0-203 0-6-6-12-10-16-37-30-75-60-112-90-4-3-10-7-10-11-1-25 0-49 0-77 50 20 98 39 147 58 0-31 25-57 55-57s55 26 56 57c48-19 96-38 147-58 0 28 0 52-1 77 0 4-6 8-9 11-38 30-75 60-112 90-5 4-10 10-10 16-1 66-1 133-1 203 123-62 244-123 367-186z" />
<glyph glyph-name="articulated-truck" horiz-adv-x="1000" unicode="&#xee0f;" d="M255 228c-61 0-109-49-109-109 0-60 48-109 109-109s109 49 109 109c0 61-49 109-109 109z m0-145c-20 0-36 16-36 36 0 20 16 36 36 36 20 0 36-16 36-36 0-20-16-36-36-36z m661 139c3 0 6 2 6 5v153c0 3-1 8-3 10l-60 93c-2 2-6 4-9 4h-219c-3 0-6-2-6-5v-212c0-3 3-6 6-5 5 0 14 1 30 1 63 0 97-30 115-54 1-3 4-3 7-1 8 7 18 11 30 11h103z m-160 93c-3 0-6 3-6 6v114c0 3 3 5 6 5h82c3 0 7-2 9-4l25-41c2-2 3-7 3-10v-64c0-3-2-6-5-6h-114z m-167-58c2 1 5 4 5 7v249c0 3 2 6 5 6h264c3 0 7 2 9 4l39 54c2 2 1 4-2 4h-341c-3 0-6-2-8-5l-38-84c-1-2-5-5-8-5h-446c-3 0-5-2-5-5v-52c0-3 2-5 5-5h36c3 0 5-3 5-6l0-82c0-4 2-6 5-7 37-8 248-56 285-166 1-3 4-5 7-5h107c3 0 6 2 7 5 4 18 22 73 69 93z m333-67h-109c-8 0-14-5-15-12-1-1-1-2-1-3v-32c0-8 7-15 16-15h109c9 0 16 7 16 15v32c0 8-7 15-16 15z m-156-39c-14 45-56 77-105 77-60 0-109-49-109-109 0-60 49-109 109-109 61 0 110 49 110 109l-1 4c0 10-2 20-4 28z m-105-68c-20 0-36 16-36 36 0 20 16 36 36 36s36-16 36-36c0-20-16-36-36-36z m-174 436c3 0 6 2 8 5l29 59c1 3 1 8 0 11l-12 29c-1 3-5 5-8 5h-35c-4 0-7 2-9 5l-35 53c-2 2-6 5-9 5h-49c-3 0-7-2-9-5l-58-69c-2-3-6-5-9-5h-38c-3 0-7-1-9-4l-37-39c-2-2-6-4-9-4h-23c-3 0-7-1-10-3l-44-40c-2-2-1-3 2-3l364 0z" />
<glyph glyph-name="auto-mobile" horiz-adv-x="1000" unicode="&#xee10;" d="M937 381l-10 31c-5 18-23 31-39 31h-36c-28 82-61 180-71 204-15 35-63 52-89 60 0 0-44 17-192 17l-192-17c-30-11-74-27-91-62-8-16-42-118-69-202h-36c-16 0-33-13-39-31l-10-31c-5-17 54-31 54-31-4-14-7-23-7-23-3-5-5-28-5-34v-285c0-18 14-33 31-33h114c17 0 31 15 31 33v61h439v-61c0-18 13-33 30-33h114c17 0 31 15 31 33v285c0 6-2 29-5 34 0 0-2 9-7 23 0 0 60 14 54 31z m-668 226c3 11 8 42 176 47 3-7 9-12 17-12h66c7 0 14 6 16 13 179-5 184-41 185-42 7-22 34-88 56-182 0 0-94-34-285-34-191 0-285 34-285 34 23 102 48 160 54 176z m11-400h-47c-42 0-84 6-84 35v34c0 33 18 34 38 34 19 0 57-17 82-29 27-13 57-23 57-45 0-20-11-29-46-29z m253 11h-76c-10 0-17 7-17 17 0 10 7 18 17 18h76c9 0 17-8 17-18 0-10-8-17-17-17z m318 24c0-15-10-24-26-29-16-5-37-6-58-6h-47c-35 0-46 9-46 29 0 22 31 32 58 45 25 12 63 29 81 29 20 0 38-1 38-34l0-34z" />
<glyph glyph-name="auto-rickshaw" horiz-adv-x="1000" unicode="&#xee11;" d="M909 252c9-6 18-7 28-6-5 28-23 43-46 55-22 11-46 16-70 11 0 11 7 14 16 16 22 3 22 3 22 26 0 19 0 19-16 25-4 15-6 31-10 45-20 62-54 116-90 168l-23 31c-16 23-39 31-65 31-73-1-146 0-219-1-65 0-129 0-194-2-34-1-68-9-98-27-42-24-65-60-65-112 1-39 0-79 0-119v-11h254v194c0 18 6 23 23 23 42 0 85 0 128 0 18 0 24-7 24-25 0-116 0-232 0-347 0-7 0-13-1-19-3-13-8-17-21-17-26 0-51 0-77 0-16 0-27 12-28 28-1 15-2 30-4 44-3 21-7 43-23 58-12 12-22 24-22 42h-253v-39c-6-2-11-3-16-4v-42c17-5 17-5 17-24v-107h634c0 4 1 7 1 10 14 104 121 143 194 95z m-243 166c-16 0-33 0-49 0-17 0-34 0-50 0-13 0-21 8-23 20-1 7 0 14 0 21 0 39 0 78 0 117 0 17 5 23 22 23 28 0 56 0 84 0 13 0 24-6 25-23 4-44 9-88 14-132 1-17-7-26-23-26z m60 33c-8 42-16 84-23 126-2 10 7 21 17 20 2 0 5-2 6-4 32-44 59-90 81-140 0-1 0-2 0-4-21-4-41-8-62-12-9-2-17 4-19 14z m115-197c-60 4-103-46-104-97-5-57 37-107 96-110 51-4 99 35 104 95 5 59-37 109-96 112z m-4-137c-18-1-33 14-33 33 0 19 14 34 32 34 18 1 33-15 33-33 0-19-14-34-32-34z m-629-21c-18 0-32 14-32 32h-65c2-42 49-81 95-82 47-1 94 38 99 82h-66c0-18-14-32-31-32z" />
<glyph glyph-name="bicycle-alt-1" horiz-adv-x="1000" unicode="&#xee12;" d="M751 441c-33 0-63-9-90-23l-50 72 28 119h-103v-37h58l-13-54h-247l20 78h64v37h-169v-37h68l-40-158c-9 2-18 3-28 3-103 0-186-84-186-187 0-103 83-186 186-186 103 0 187 83 187 186 0 81-52 150-124 176l15 58 200-252h38c10-94 89-168 186-168 103 0 187 83 187 186 0 103-84 187-187 187z m-351-187c0-83-68-150-151-150-83 0-150 67-150 150 0 83 67 151 150 151 7 0 13-1 19-1l-36-145 35-9 36 145c56-22 97-77 97-141z m252 113l65-95h-115c4 38 23 71 50 95z m-125-73l-150 188h195l-45-188z m32-22l41 171 31-46c-36-30-61-75-66-125h-6z m192-168c-77 0-140 58-149 132h183l-104 152c21 11 45 17 70 17 83 0 150-68 150-151 0-83-67-150-150-150z" />
<glyph glyph-name="bicycle-alt-2" horiz-adv-x="1000" unicode="&#xee13;" d="M770 405c-15 0-29-2-43-6-1 9-3 18-4 27 5-2 10-3 16-3h57c26 0 37 21 37 47v57c0 26-21 47-47 47h-125c-25 25-61 47-111 58 0 0-12 1-12-11 0-12 5-13 15-16 38-9 87-42 108-68-20-33-117-180-270-223l-64 188 38 4c11 0 21 10 21 21 0 12-10 21-21 21l-104 13c-12 0-21-22-21-34 0-11 9-34 21-34l37 5-27-78h-100c-11 0-19-9-19-19 0-5 2-10 6-13-56-27-95-85-95-151 0-93 75-168 168-168 88 0 160 68 167 155l37 0c10-11 25-18 42-18 11 0 20 3 29 8l21-30-15-19 10-8 22 26 0 1 14 18-10 8-12-15-12 15-8 11c12 11 20 27 20 44 0 4 0 7-1 10 64 53 132 131 159 167 3-18 5-35 9-51-60-26-101-86-101-154 0-93 75-168 168-168 92 0 168 75 168 168 0 92-76 168-168 168z m-449 39l30-91c-14 15-32 28-52 37l22 54z m-78-66c5 0 9-1 13-2l-13-38v40z m0-124l46 112c46-21 78-65 83-116h-129v4z m-12-159c-79 0-143 63-143 142 0 69 51 127 117 139v-135h0v-17l167 0c-6-72-67-129-141-129z m189 155h-22c-1 13-4 25-7 37 13 4 26 8 38 13-7-10-11-22-11-35 0-5 1-10 2-15z m393 220c0-15-2-27-17-27h-57c-8 0-15 4-20 9-1 8-2 15-2 23 0 0-1 6-4 14h100v-19z m-289-169c-10 13-26 22-43 23 103 57 170 149 195 188 7-12 11-23 13-30-29-40-101-125-165-181z m155 253h107c15 0 27-12 27-27v-18h-107c-6 13-15 29-27 45z m91-459c-79 0-143 63-143 142 0 56 33 105 81 128 22-92 54-143 56-146l22 14c-1 1-32 51-53 141 11 3 24 5 37 5 78 0 142-64 142-142 0-79-64-142-142-142z" />
<glyph glyph-name="bicycle" horiz-adv-x="1000" unicode="&#xee14;" d="M499 423c-28-2-42-14-42-40v-214c0-72 1-144 0-216 0-13 3-23 14-31 19-13 40-11 60-4 19 6 22 23 22 40 0 138-1 276 0 413 0 35-10 54-54 52z m-177-154h-111c-4 0-7-3-7-6v-37c0-4 3-7 7-7h111c4 0 7 3 7 7v37c0 3-3 6-7 6z m467-90h-112c-4 0-7-3-7-7v-36c0-4 4-7 7-7h112c4 0 7 3 7 7v36c0 4-3 7-7 7z m-63 451c4 0 7 3 7 7 0 22 0 92 0 114 0 4-3 7-7 7-29 0-148 0-177 0-4 0-7 2-7 4v19c0 4-3 7-7 7h-61c-4 0-7-3-7-7v-19s-3-4-6-4h-178c-4 0-7-1-7-1v-120c0-4 3-6 7-6h54c4 0 7 2 7 6v72c0 4 3 7 6 7h110c4 0 7-3 7-7v-37c0-4-3-6-7-6h-38c-4 0-7-3-7-7v-37c0-4 3-7 7-7h18c4 0 7-2 7-6 0-28 0-55 0-82-1-3-3-6-6-8-24-24-49-47-73-70-4-4-7-11-7-16 0-81 0-162 0-243 0-2 0-3 0-5 0-3 4-6 7-6h49c4 0 7 3 7 6v6c0 74 0 148 0 222 0 7 2 12 7 17 13 12 27 23 38 37 12 14 26 20 45 17 4-1 10-3 13-6 17-16 32-32 49-48 6-5 8-11 8-18-1-73 0-147 0-220v-6s3-7 6-7h49c4 0 7 2 8 5 0 1 0 3 0 4 0 82 0 165 0 247 0 5-3 10-7 14-23 23-47 45-70 68-3 3-6 6-6 10-1 27-1 54-1 82 0 4 3 7 7 7h17c4 0 7 3 7 6v38c0 3-3 6-7 6h-38c-4 0-7 3-7 7v36c0 4 3 7 7 7h109c4 0 7-3 7-7v-72c0-4 3-6 7-6l54-1z" />
<glyph glyph-name="bus-alt-1" horiz-adv-x="1000" unicode="&#xee15;" d="M897 652h-40c-7 0-12-6-12-12v-197c0-7 6-12 12-12h14v-89c0-7-6-12-12-12h-37v334c0 68-55 124-123 124h-406c-68 0-123-56-123-124v-328h-30c-7 0-12 5-12 12v96h15c7 0 12 5 12 12v197c0 6-6 11-12 11h-41c-6 0-11-5-11-11v-197c0-7 5-12 11-12h16v-106c0-7 5-12 11-12h41v-242c0-46 26-86 63-107v-53c0-6 5-11 12-11h85c7 0 12 5 12 11v37h305v-37c0-6 5-11 11-11h86c6 0 12 5 12 11v51c39 21 66 62 66 110v234h47c6 0 12 6 12 12v100h16c7 0 12 5 12 12v197c0 6-5 12-12 12z m-542 98c0 7 5 12 12 12h263c7 0 12-5 12-12v-43c0-7-5-12-12-12h-263c-7 0-12 6-12 12l0 43z m31-649c0-6-6-11-12-11h-136c-6 0-11 5-11 11v49c0 6 5 11 11 11h136c6 0 11-5 11-11l1-49z m385 0c0-6-6-11-12-11h-136c-6 0-11 5-11 11v49c0 6 5 11 11 11h136c6 0 12-5 12-11v-49z m0 219s-31-97-278-97c-246 0-272 97-272 97v339h549v-339z" />
<glyph glyph-name="bus-alt-2" horiz-adv-x="1000" unicode="&#xee16;" d="M257 267c-45 0-82-37-82-82s37-81 82-81 81 37 81 81-37 82-81 82z m0-117c-20 0-36 16-36 35s16 36 36 36 35-16 35-36c0-19-16-35-35-35z m477 117c-45 0-82-37-82-82s37-81 82-81 81 37 81 81-36 82-81 82z m0-117c-20 0-36 16-36 35s16 36 36 36c19 0 35-16 35-36s-16-35-35-35z m155 446h-729c-27 0-53-21-59-48l-29-106c-5-26-9-69-9-96v-112c0-27 21-49 48-49h50c0 53 43 96 96 96s95-43 95-96h286c0 53 43 96 96 96s96-43 96-96h59c27 0 49 22 49 49v313c-1 27-22 49-49 49z m-625-205h-113l18 42c3 8 0 16-8 20-7 3-16-1-19-8l-22-53c-15 4-24 18-21 35l26 104c4 20 23 36 43 36h96l0-176z m217 0h-187v176h187v-176z m216 0h-187v176h187v-176z m211 36c0-20-17-36-37-36h-145v176h145c20 0 37-17 37-37l0-103z" />
<glyph glyph-name="bus-alt-3" horiz-adv-x="1000" unicode="&#xee17;" d="M765 788h-531c-54 0-98-48-98-108v-577c0-33 14-63 36-83v-79c0-16 13-29 28-29h105c16 0 28 13 28 29v54h87v1l246-1v-54c0-16 13-29 29-29h104c16 0 29 13 29 29v79c22 20 36 50 36 83v577c0 60-44 108-99 108z m-419-46h307v-30h-307v30z m62-571h-194v71h194v-71z m-184 233c-15 0-28 6-28 13v255c0 7 13 13 28 13h551c16 0 29-6 29-13v-255c0-8-13-13-29-13h-551z m378-233v71h194v-71h-194z" />
<glyph glyph-name="bus" horiz-adv-x="1000" unicode="&#xee18;" d="M882 469c-1 0-2 0-3 0-3 79-6 158-9 237-2 51-35 81-86 81-64 1-129 0-193 0-126 0-251 1-377 0-49 0-82-31-84-79-3-80-7-159-10-239 0 0-1 0-2 0-9 0-17-10-17-22v-74c0-12 6-21 15-23-3-65-4-129-7-194-2-40 6-75 30-107 2-4 3-9 3-14 0-28 0-57 0-85 0-20 11-35 31-36 28-2 57-2 85 0 20 1 31 15 31 36v41h422v-41c0-21 12-35 32-36 28-2 55-2 83 0 20 1 32 15 32 36 0 27-1 55 0 82 0 8 2 16 7 21 18 28 28 58 26 91-2 69-5 137-7 206 8 1 15 11 15 23v74c0 12-7 22-17 22z m-443 279c21 0 41 0 61 0 20 0 41 0 61 0 17 0 26-9 27-24 0-15-10-25-27-25-41 0-81 0-122 0-17 0-27 10-27 26 1 14 10 23 27 23z m-192-648c-38 0-67 30-67 69 0 38 30 67 68 67 38 0 68-30 68-68 0-38-30-68-69-68z m531 212c-55-8-110-14-166-18 0 47 39 86 86 86 41 0 75-29 84-67-2-1-3-1-4-1z m-26-212c-38 0-68 30-68 68 0 12 3 23 8 33 2 2 3 5 5 7 12 17 32 28 55 28 3 0 6 0 9 0 3-1 6-1 9-2 29-7 50-34 50-66 0-38-30-68-68-68z m71 263c0-24-13-41-34-48-9 41-47 73-91 73-52 0-93-42-93-94v0c-34-3-68-4-102-4-95-1-190 6-283 22-28 4-43 22-43 50 2 87 4 173 6 260 1 18 13 30 31 31 72 4 144 9 216 11 71 2 142 1 212-1 49-1 97-6 145-10 18-1 29-14 29-32 1-45 7-125 7-133 0-42 0-83 0-125z" />
<glyph glyph-name="cab" horiz-adv-x="1000" unicode="&#xee19;" d="M891 399c25 1 47 24 46 49 0 26-21 47-48 47-15 0-31 1-46 0-9 0-13 3-16 11-13 31-26 61-40 91-12 27-33 40-62 40-149 1-298 0-447 1-33 0-55-15-68-45-12-30-25-59-38-89-3-7-6-9-14-9-15 1-30 0-46 0-28 0-49-20-50-47 0-27 22-49 51-49 5 0 10 0 18 0-3-8-5-14-7-21-7-28-18-56-19-85-3-90-3-180-3-270 0-32 21-57 52-61 19-2 39-2 58 1 29 3 53 22 50 59-1 12 0 24 0 36h475v-39c0-30 15-50 45-55 15-3 31-2 47-2 44-1 68 23 68 68 0 73 1 147 0 221 0 39-4 79-19 116-3 10-6 20-10 32l23 0z m-678-198c-28-1-50 21-50 49 0 28 21 49 49 49 28 1 49-21 49-49 0-27-21-49-48-49z m7 199c4 16 9 30 13 44 12 40 24 79 35 119 3 8 6 12 16 12 144-1 288 0 433 0 6 0 11 0 14-9 16-54 32-108 48-162 1-1 0-2 0-4h-559z m568-199c-27 0-49 22-49 50 0 27 21 49 48 49 28 0 50-22 50-49 0-28-21-50-49-50z m-129 459h-21l-1 27h-29c0-9 0-18 0-27h-28v27h-29v-27h-27v27h-34v-27h-27v27h-29v-27h-28c0 9 0 18 0 27h-29c0-9 0-18-1-27h-20c-1-7-1-15-1-22h304c0 7 0 15 0 22z m-282 56h29v-29h28v29h30v-29h26v29h34v-29h27v29h29v-29h28v29h30v-29h21c0 4 0 8-1 12-3 24-21 39-46 39-69 1-139 1-209 0-21 0-41-15-44-35-1-5-1-11-2-16h20v29z" />
<glyph glyph-name="cable-car" horiz-adv-x="1000" unicode="&#xee1a;" d="M788 442h-20c0 1 0 2 0 4v19c0 9-7 16-16 16h-235v192l414 86-6 29-855-177 6-29 408 84v-185h-236c-9 0-16-7-16-16v-19c0-2 0-3 0-4h-19c-45 0-82-37-82-81v-371h738v371c0 44-36 81-81 81z m-324-292c0-4-4-8-9-8h-162c-5 0-8 4-8 8v227c0 5 3 8 8 8h162c5 0 9-3 9-8v-227z m252 0c0-4-4-8-8-8h-163c-4 0-8 4-8 8v227c0 5 4 8 8 8h163c4 0 8-3 8-8v-227z m-503-238h575c36 0 66 24 77 57h-729c10-33 41-57 77-57z" />
<glyph glyph-name="car-alt-1" horiz-adv-x="1000" unicode="&#xee1b;" d="M937 480c0 15-7 23-23 23-13 0-25-1-37 0-18 1-30-5-38-22-2-6-9-11-15-19-2 7-4 10-4 14-15 48-34 95-60 140-10 19-26 32-47 38-11 4-21 8-33 9-50 4-100 9-151 10-70 2-140 1-210-10-40-6-71-23-87-62-13-30-27-61-40-91-6-15-10-30-15-44l-3-2c-5 7-11 14-16 22-5 10-13 17-25 17-16 0-33 0-49 0-13-1-20-8-21-20-1-9-1-17 0-26 1-13 8-21 22-21 17 0 34 0 51 0h28c-3-3-5-5-6-6-25-23-43-50-51-82-18-64-9-127 15-189 7-17 20-29 38-36 6-2 8-6 8-13 0-17 0-34 0-52 0-20 11-30 32-30 3 0 6 0 8 0 61-2 66 1 64 61 0 4 0 9 0 13 77-2 152-6 227-6 76 0 152 4 229 6 0-15 0-30 0-45 1-18 12-29 30-29 14 0 29 0 43 0 20 0 31 11 31 30 0 18 0 36 1 53 0 4 2 9 5 10 28 12 43 35 49 63 7 30 12 60 15 91 5 61-16 113-61 156-1 1-2 3-4 5h13c21 0 42 0 63 0 17 1 24 8 25 24 0 6 0 13-1 20z m-689 21c12 30 27 60 41 89 2 5 8 9 13 10 38 12 78 18 117 18 63 1 126 1 188-2 31-1 61-10 92-16 4-1 9-5 11-8 27-42 45-88 55-136 0-1 0-2 0-4-177 23-353 23-532-1 5 18 8 35 15 50z m-28-272c-30 0-55 23-55 53-1 29 25 54 55 54 30 0 55-24 55-54 0-29-25-53-55-53z m436 84c-7-24-15-47-22-70-2-9-7-13-16-13-79 1-157 1-236 0-8 0-13 4-16 12l-23 73c-4 12 1 19 15 19 47 0 95 0 142 0h140c17 0 21-6 16-21z m124-84c-30 0-55 25-55 54 1 29 26 53 56 53 29 0 55-25 54-54 0-30-25-54-55-53z" />
<glyph glyph-name="car-alt-2" horiz-adv-x="1000" unicode="&#xee1c;" d="M930 303l-2 1c-1 1-1 5 0 11 3 10 6 20 8 30 4 15-3 29-17 35-5 2-10 3-15 4-61 6-122 13-183 19-6 1-11 3-16 7-24 26-49 52-72 78-12 15-27 21-45 21-85-1-169-1-253-2-26 0-48-9-65-31-14-21-33-38-48-58-10-13-23-17-39-19-31-3-61-9-92-13-13-2-19-9-20-22 0-13-3-25 7-37 4-4 2-8-3-11-8-4-14-10-12-19 1-9 8-14 16-17l10-2c3-1 5-2 7-4 6-4 13-11 20-12 19-3 39-5 58-5 19 0 25 6 29 25 7 32 34 54 66 55 43 0 69-33 70-63 1-19 8-25 28-25 50 0 101 0 152 0 59 0 118 0 178 0 32 0 41 6 50 37 8 28 32 48 61 51 28 2 55-14 68-40 5-8 10-16 15-24 4-5 10-8 14-2 5 8 12 8 20 8 6 0 10 3 12 9 1 7-1 12-7 15z m-462 110c0-5-4-9-10-9h-154c-5 0-7 3-4 8 14 21 27 41 41 61 5 5 14 10 21 11 34 1 68 1 103 1 0 0 1 0 1 0 1-1 2-5 2-10 0-21 0-41 0-62z m192-9h-157c-5 0-10 4-10 9v62c0 6 4 10 10 10h70c3 0 6-1 9-1 15 3 26-4 35-16 15-19 30-37 46-57 4-4 2-7-3-7z m-390-81c-36 0-65-29-65-65-1-36 28-66 64-66 37-1 67 29 67 66 0 36-30 65-66 65z m0-108c-23 0-43 19-42 42 0 24 16 43 42 43 25 0 43-21 42-43 0-23-18-41-42-42z m545 108c-37 0-66-29-66-66 0-36 30-65 66-65 36 0 65 29 65 65 0 36-29 66-65 66z m-1-107c-24 0-42 18-42 43 1 24 20 42 43 41 29-1 43-24 42-44-1-23-20-41-43-40z" />
<glyph glyph-name="car-alt-3" horiz-adv-x="1000" unicode="&#xee1d;" d="M925 282c-31 78-93 121-170 142-29 7-47 21-63 45-132 202-417 178-528 57-73-80-97-178-101-283-2-32 20-48 52-49 27 87 67 121 138 120 68-1 108-36 132-119h205c18 75 57 114 117 119 76 6 114-24 151-119 78-9 95 15 67 87z m-651 125c-25 1-49 0-74 1-32 1-46 17-30 48 39 72 102 111 182 124 10 1 26-16 36-27 4-5 2-17 2-25 0-133 11-121-116-121z m378 2c-32-2-64-1-95-1v0c-31 0-61-1-91 0-28 0-43 15-43 43 0 30-1 61 0 91 1 28 17 43 45 38 87-16 154-63 201-137 14-20 7-33-17-34z m-402-118c-63 0-107-43-107-105 1-57 48-104 105-104 59-1 107 47 106 107-1 61-43 102-104 102z m-1-157c-30 0-53 23-53 52 0 30 23 54 53 54 29 0 53-24 53-54 0-29-24-52-53-52z m471 157c-61 1-105-42-106-101-1-60 46-108 106-109 56 0 109 52 107 108 0 56-49 102-107 102z m1-157c-29 0-53 23-53 52 0 30 24 54 53 54 29 0 53-24 53-54 0-29-24-52-53-52z" />
<glyph glyph-name="car-alt-4" horiz-adv-x="1000" unicode="&#xee1e;" d="M936 372c-1 40-24 72-63 86-12 4-18 11-22 21-20 55-42 109-63 164-20 53-50 73-107 73-121 0-242 0-363 0-56 0-86-20-106-72-22-56-44-112-66-168-2-6-7-13-13-15-49-20-70-52-70-105v-222c0-2 1-4 3-4 18 0 34-1 51 0 13 1 18-3 17-17 0-25-1-51 1-76 3-36 39-60 73-52 32 8 50 31 50 66 1 25 0 49 0 74 0 2 2 4 4 4h476c2 0 3-2 3-4 0-24 0-48 1-73 1-50 38-79 82-65 24 7 40 27 41 52 1 28 0 57 0 87 0 2 2 4 4 4h64c2 0 4 1 4 3 0 81 2 160-1 239z m-738-106c-37 0-67 31-66 68 1 36 31 66 66 66 36 0 65-30 64-68 0-37-28-66-64-66z m15 198c-2 0-3 2-3 4 0 2 1 4 1 6 18 49 36 97 55 146 11 29 21 35 51 35h156v-8c0-2 1-4 3-4h48c2 0 3 2 3 4v8c52 0 104 0 156 0 23 1 40-7 49-29 19-52 38-104 57-156 1-1 1-2 1-3 0-2-2-3-4-3h-36c-12 38-47 65-88 65s-77-27-89-65h-360z m449 56c36 0 67-23 78-56h-156c11 33 42 56 78 56z m141-254c-36 0-65 28-66 65 0 38 28 69 64 69 36 1 67-31 67-67 0-37-30-67-65-67z" />
<glyph glyph-name="car" horiz-adv-x="1000" unicode="&#xee1f;" d="M879 434c10 1 20 0 31 0 19 0 27 9 27 32 1 23-7 33-27 34-10 0-21 0-31 0-29 0-46-18-48-49 14-12 30-18 48-17z m-48 17l0 1c-2 4-4 7-6 12-17 47-35 95-51 143-9 26-26 42-52 44-64 4-128 9-192 11-84 3-167-2-251-11-25-3-43-16-52-42-7-20-14-41-21-61-11-31-23-61-35-94-2 5-3 9-4 13-10 25-21 33-46 33h-23c-29 0-39-12-35-43 2-14 10-23 24-23 28 1 57-7 83 15-8-12-17-23-26-33-11-11-25-19-34-31-8-10-16-23-17-36-2-35-2-71-2-107 0-14 0-28 0-43h-2c-4-27 6-48 29-56 8-3 9-7 9-15 0-21 0-41 0-62 1-20 6-28 22-28 26-1 52 0 78 1 9 0 15 5 16 15 1 12 3 23 3 35 0 11 4 14 15 14 86 0 173 0 260 0 74 0 147 0 221 0 10 0 14-3 14-14 0-8 1-17 1-25 1-19 6-25 23-25 23-1 45-1 68-1 21 0 26 6 27 30 0 20 0 41 0 61 0 7 1 11 8 14 24 9 35 31 30 57h-3c1 3 2 6 2 9-1 35 0 71-3 107-3 45-22 82-60 107-8 5-12 19-19 29l1 0v-1z m-615 58c10 24 21 47 32 71 5 13 14 20 27 21 42 3 85 5 127 8 92 5 183 2 275-6 17-1 34-2 51-3 12-1 20-6 26-19 17-41 35-82 52-122 2-5 4-9 6-14h-624c10 22 18 43 28 64z m-81-199c0 15 8 24 22 24 38 1 77 1 115 0 13 0 22-9 23-23 1-13 1-25 0-37-1-15-10-24-23-24-19 0-38 0-58 0v0c-18 0-37 0-55 0-16 0-24 9-24 27 0 11-1 22 0 33z m731-1c0-11 0-22-1-32 0-15-8-25-22-25-38 0-77-1-116 0-15 0-22 10-22 26 0 10 0 21 0 32 0 17 9 27 25 27 18 0 37 0 56 0 18 0 35 0 53 0 17 0 26-10 27-28z" />
<glyph glyph-name="delivery-time" horiz-adv-x="1000" unicode="&#xee20;" d="M926 158h-27v153c0 18-5 36-15 51l-69 101c-17 25-45 40-75 40h-106c-12 0-22-10-22-23v-322h-174c16-14 28-34 31-56h183c7 44 45 79 92 79s85-35 91-79h91c7 0 12 5 12 11v34c-1 6-6 11-12 11z m-112 183h-140c-6 0-11 5-11 12v77c0 6 5 11 11 11h85c4 0 8-1 10-4l54-78c6-7 0-18-9-18z m-70-183c-39 0-70-31-70-70 0-38 31-70 70-70 38 0 70 32 70 70 0 39-32 70-70 70z m0-105c-20 0-35 16-35 35 0 20 15 35 35 35s35-15 35-35c0-19-16-35-35-35z m-584 105c-6 0-11-5-11-11v-34c0-6 5-11 11-11h126c3 22 15 42 31 56h-157z m217 0c-38 0-70-31-70-70 0-38 32-70 70-70 39 0 70 32 70 70 0 39-31 70-70 70z m0-105c-19 0-35 16-35 35 0 20 16 35 35 35s35-15 35-35c0-19-15-35-35-35z m169 519h-131c7-19 10-39 10-60 0-106-86-193-192-193-20 0-38 3-56 9v-125c0-6 5-11 11-11h380c7 0 12 5 12 11v336c0 18-16 33-34 33z m-313 110c-94 0-170-76-170-170 0-94 76-170 170-170 94 0 170 76 170 170 0 94-76 170-170 170z m0-301c-73 0-132 58-132 131s59 131 132 131 131-58 131-131c0-73-59-131-131-131z m50 103c-2 0-3 1-5 1l-54 15c-8 2-13 8-13 16v84c0 10 8 17 17 17 9 0 17-7 17-17v-71l42-11c9-3 14-12 12-21-2-8-9-13-16-13z" />
<glyph glyph-name="fast-delivery" horiz-adv-x="1000" unicode="&#xee21;" d="M387 251c-41 0-73-33-73-73s32-73 73-73 73 33 73 73c0 40-33 73-73 73z m0-110c-20 0-37 17-37 37 0 20 17 36 37 36s36-16 36-36c0-20-16-37-36-37z m551 164v-78c0-19-16-35-36-35h-37c-7 47-47 83-96 83-49 0-89-36-96-83h-191c-6 47-47 83-95 83-49 0-89-36-96-83h-47c-19 0-35 16-35 35v78h729z m-169-54c-40 0-73-33-73-73s33-73 73-73 73 33 73 73c0 40-33 73-73 73z m0-110c-20 0-36 17-36 37 0 20 16 36 36 36 20 0 37-16 37-36 0-20-17-37-37-37z m155 243l-139 137c-9 8-20 13-33 13h-70v26c0 20-15 36-35 36h-403c-19 0-35-16-35-36v-5l-143-17 253-33-256-25 255-36-255-23 146-27v-69h728v25c1 13-5 25-13 34z m-61-5h-134c-3 0-5 3-5 6v103c0 3 2 5 5 5h26c1 0 3 0 4-1l108-103c4-4 1-10-4-10z" />
<glyph glyph-name="fire-truck-alt" horiz-adv-x="1000" unicode="&#xee22;" d="M496 224c-15 0-31 1-46 0-8 0-11 2-10 10 0 26 0 52 0 78 0 7 2 10 9 10 31-1 62 0 93 0 7 0 9-2 9-9 0-27 0-54 0-80 0-7-3-9-9-9-16 1-31 1-46 0z m-433 111c5-6 3-17 14-20 1 0 1-3 2-5 6-12 12-25 17-38 3-7 4-15 6-23 0-2 1-4 3-6 20 8 40 17 60 25 180 77 360 153 541 230 6 2 14 4 20 4 51 0 102 0 154 0 8 0 11 2 11 11 0 35 0 71 0 106 0 9-3 11-11 11-52-1-104-1-155 0-8 0-12-2-11-10 1-6-2-9-7-11-126-53-252-107-378-160-87-37-173-73-259-110-2-1-4-2-7-4z m642 190c-20 10-40 21-62 34 17 7 32 13 47 20 8-17 15-33 22-48 0-2 0-6 0-6-2-1-5-1-7 0z m-100-46c5 23 11 45 16 67 2 7 7 7 13 4 12-7 24-13 36-20 8-4 15-8 24-13-31-13-59-25-89-38z m-14-6c-22 12-43 24-65 36 27 11 53 22 82 34-6-24-12-47-17-70z m-103-44c5 24 10 46 16 67 1 6 6 8 11 5 21-11 41-22 62-34-30-13-59-25-89-38z m-14-6c-22 12-43 24-65 36 27 12 53 23 82 35-6-25-12-47-17-71z m-104-44c6 24 11 46 17 68 2 5 6 7 12 4 6-3 13-7 19-11 13-7 27-15 42-23-30-13-59-25-90-38z m-14-5c-21 12-42 23-64 35 28 12 54 23 82 35-6-24-12-46-18-70z m-103-45c6 24 11 46 17 67 1 3 8 7 10 6 21-11 41-22 63-35-31-13-60-25-90-38z m-14-5c-21 12-42 23-64 36 28 11 54 22 81 34-5-24-11-47-17-70z m-103-44c6 23 11 45 17 67 1 6 6 7 12 4 20-10 39-21 61-33-31-13-60-25-90-38z m-42 45c15 7 29 13 46 20-8-26-11-50-19-73l-3 1c-8 17-16 34-24 52z m489 28c0-64 0-128 0-192 0-10 4-19 11-26 3-2 7-4 10-4 52-1 104 0 156 0 4 17 12 31 27 41 11 7 23 10 36 10 28-1 47-18 58-51 15 0 30 0 45 0 6 0 10 3 11 9 0 3 1 6 1 9 0 5 0 10 0 15 0 82 0 82-26 160-4 11-8 22-12 33-6 14-15 22-31 20-5-1-11 0-18 0 2 5 4 8 4 12 1 8 1 17 1 26 0 1-4 3-7 3-17 0-35 0-52 0-2 0-5-1-7-3-4-5-1-23 4-27 2-3 2-6 3-11h-189c-19 0-25-6-25-24z m185-121c1 2 3 4 5 5 4 0 9 0 13 0 5 0 9 0 14 0 2 0 4-3 5-4-1-2-3-5-4-6-10 0-19 0-28 0-2 1-5 4-5 5z m-14 113c41 0 80 0 119 0 8 0 12-5 15-12 6-18 13-36 19-54 2-5 2-12 3-19h-156v85z m-135-112c0 0 3 4 5 4 9 0 18 0 28 0 1 0 4-3 4-5 0-1-2-4-4-4-5-1-9-1-14-1-4 0-9 0-14 1-2 0-4 3-5 5z m-13 102c0 8 2 10 10 10 19 0 37 0 56 0s37 0 56 0c7 0 10-2 10-9-1-20-1-41 0-61 0-7-2-9-9-9-38 0-76 0-114 0-7 0-9 2-9 9 1 20 1 40 0 60z m-515-122c11 0 23 0 34 0h426c15 0 18-2 18-17v-49c0-15-3-18-18-18h-223c-14 38-32 53-64 53-28-1-48-18-58-53-39 0-77 0-115 0-8 0-13 4-13 13 1 19 1 39 0 58 0 9 4 13 13 13z m266 45v-35h-185c0 10-1 19 0 28 1 4 3 8 6 9 12 7 25 12 38 18 33 15 67 30 101 46 0-4 1-8 2-11 1-8-1-12-8-16l-40-20c-9-5-11-10-8-19 32 0 63 0 94 0z m-145-135c1-30 25-53 55-53 30 0 54 24 54 53 0 29-25 53-54 53-31 0-55-23-55-53z m24 0c0 16 14 29 30 30 17 0 30-13 30-30 0-16-13-29-30-29-16 0-30 13-30 29z m530 0c0-29 24-53 54-53 30 0 54 23 54 53 0 29-24 53-54 53-29 0-54-23-54-53z m24 0c0 17 13 30 30 30 17 0 31-14 30-30 0-16-13-29-30-29-17 0-30 13-30 29z m-378 227c9 0 12-3 12-12-1-30 0-60 0-90 0-24-1-24-27-20v11c0 31-1 63 0 95 0 17-4 15 15 16z" />
<glyph glyph-name="fire-truck" horiz-adv-x="1000" unicode="&#xee23;" d="M236 72h138c13 0 24 11 24 24v33c0 13 11 24 24 24 55 0 182 0 182 0v-56c0-14 11-25 24-25h139c13 0 24 11 24 25v466c0 13-11 24-24 24h-104l19 175c1 13-3 25-11 26-7 0-14-10-16-23l-1-9c-1 0-2 1-3 1h-287c-6 0-11-3-15-6l-2 14c-2 13-9 23-16 23-7-1-12-13-10-26l19-175h-104c-14 0-24-11-24-24v-467c0-13 10-24 24-24z m105 81c-30 0-54 24-54 54s24 53 54 53c29 0 53-24 53-53 0-30-24-54-53-54z m328-4c-30 0-54 24-54 53 0 30 24 54 54 54 29 0 53-24 53-54 0-29-24-53-53-53z m87 357v-98c0-13-11-24-24-24h-196c-13 0-24 11-24 24v98c0 13 11 24 24 24h196c13 0 24-11 24-24z m-392 207h285l-4-42c-2 0-5 1-7 1h-274c-2 0-4-1-7-1l-5 45c4-2 8-3 12-3z m1-114l-3 30c1 0 2-1 2-1h274c1 0 1 1 2 1l-3-30c-1-4-3-9-5-12h-262c-2 3-4 7-5 12z m-119-93c0 13 11 24 24 24h196c13 0 24-11 24-24v-98c0-13-11-24-24-24h-196c-13 0-24 11-24 24v98z m554-463h-172c-13 0-24-11-24-24v-3c0-13-11-24-24-24h-158c-13 0-24 11-24 24v3c0 13-11 24-24 24h-172c-13 0-24-11-24-24v-18c0-13 11-24 24-24h10c0-1 0-1 0-2v-38c0-14 10-25 24-25h45c13 0 24 11 24 25v38l0 2h393c0-1-1-1-1-2v-38c0-14 11-25 24-25h46c13 0 24 11 24 25v38l-1 2h10c13 0 24 11 24 24v18c0 13-11 24-24 24z m-378 29c-13 0-24-6-24-14s11-15 24-15h158c13 0 24 6 24 15 0 8-11 14-24 14h-158z m437 385h-29c-13 0-24-11-24-24v-96c0-13 11-24 24-24h29c14 0 24 11 24 24v96c0 13-10 24-24 24z m-665-120v96c0 13-11 24-24 24h-30c-13 0-24-11-24-24v-96c0-13 11-24 24-24h30c13 0 24 11 24 24z" />
<glyph glyph-name="free-delivery" horiz-adv-x="1000" unicode="&#xee24;" d="M938 304v-79c0-20-17-36-36-36h-39c-7 47-48 84-97 84-50 0-91-37-98-84h-326c-7 47-48 84-98 84s-90-37-97-84h-48c-20 0-36 16-36 36v79h875z m-628 192h-21l-7-39h20c13 0 24 9 24 25 0 9-6 14-16 14z m530-322c0-41-33-74-74-74-42 0-75 33-75 74 0 42 33 75 75 75 41 0 74-33 74-75z m-37 0c0 21-17 38-37 38-21 0-37-17-37-38 0-20 16-37 37-37 20 0 37 17 37 37z m-484 0c0-41-34-74-75-74s-74 33-74 74c0 42 33 75 74 75s75-33 75-75z m-38 0c0 21-16 38-37 38s-37-17-37-38c0-20 17-37 37-37s37 17 37 37z m657 150h-875v240c0 20 16 36 35 36h543c20 0 36-16 36-36v-26h72c12 0 24-5 33-14l141-140c9-9 14-21 14-34l1-26z m-748 137l7 35h49l3 19h-71l-24-124h22l10 50h42l3 20h-41z m131-17v0c19 6 28 24 28 41 0 13-6 23-16 27-6 2-12 3-18 3h-44l-24-124h22l9 46h23l15-46h24l-16 46c-2 5-3 7-3 7z m138 71h-74l-25-124h77l4 20h-54l6 33h42l4 19h-42l6 33h52l4 19z m100 0h-74l-24-124h77l3 20h-54l6 33h42l4 19h-42l6 33h52l4 19z m307-126l-111 106c-1 1-2 1-4 1h-26c-3 0-5-2-5-5v-106c0-3 2-5 5-5h137c5-1 7 6 4 9z" />
<glyph glyph-name="helicopter" horiz-adv-x="1000" unicode="&#xee25;" d="M900 302c-60 100-147 158-265 164-5 0-13 7-14 12l-12 52c-2 7-9 13-13 19-5-6-13-12-15-19-6-21-9-42-14-65-21 0-40 1-60 0-38-2-67-20-89-52-4-6-14-11-20-11-44-1-89-1-133-1h-122c0-22 8-31 31-34 71-10 142-24 213-35 13-2 19-7 24-19 26-73 78-111 155-112 82-1 165-1 247 1 28 0 56 5 84 11 21 5 28 21 22 42-4 17-10 33-19 47z m-56 21c-54 0-108-2-162 3-56 6-88 46-105 97-4 12 0 19 12 20 105 9 190-29 261-105 1-1 2-3 3-5 0-1 0-2 1-6-3-2-7-5-10-4z m46-144c-134 0-267 0-401 0-14 0-26-3-26-19-1-18 12-19 26-19 67 0 134 0 202 0v0c66 0 133 0 199 0 14-1 27 1 28 18 0 17-13 20-28 20z m-609 329c89 5 178 10 267 15 13 1 18 6 15 20-6 1-11 1-17 2-36 2-72 4-109 6-55 3-110 6-165 9-6 0-15-2-17-6-14-24 1-48 26-46z m638 52c-57-4-114-7-171-10-41-2-81-5-122-7-1-13 2-19 16-20 87-5 174-10 261-15 35-2 34-1 34 34 1 14-4 19-18 18z m-823-204c-18 26-12 60 12 79 23 19 61 17 78-6 10-12 20-14 33-11-11 34-44 56-82 52-39-3-70-34-74-73-4-39 20-74 58-86 36-10 72 3 87 35-12-1-24-2-33-7-28-15-62-8-79 17z" />
<glyph glyph-name="motor-bike-alt" horiz-adv-x="1000" unicode="&#xee26;" d="M792 394c-25 0-49-7-69-18l-68 116c13-5 28-7 44-7 46 0 47 0 47 54s-1 55-47 55c-32 0-61-11-77-26-20 7-83 30-92 30-30 1-30-41-1-45 18-2 62-9 81-12 0 0-1-1-1-2-147 0-218-109-218-109s2 21-34 21c-106 0-156 41-158-23-101 0-129-61-110-81 4 0 8-1 12-1-24-26-38-60-38-98 0-81 65-146 145-146 72 0 132 52 144 120 17-6 38-11 62-11h109c34 0 80 12 93 72l33 169c0 5 1 15 1 26l63-108c-40-25-67-71-67-122 0-81 65-146 146-146 80 0 146 65 146 146 0 80-66 146-146 146z m-498-116c3-8 5-16 5-24h-78l43 53c16-11 25-21 30-29z m-86-121c-50 0-91 41-91 91 0 43 31 80 72 89 28-6 49-15 65-24l-50-61-1-1c0 0 0-1 0-1 0-1 0-1 0-1l0-1 0 0 0-2 0-1 1 0c0-1 0-1 0-1l1-1 1 0c0 0 0 0 0 0 1-1 2-1 2-1h91c-3-47-42-85-91-85z m584 0c-51 0-92 41-92 91 0 31 16 59 41 75l46-78c1-2 3-3 5-3 1 0 2 0 3 1 2 1 3 5 2 8l-46 78c12 6 26 10 41 10 50 0 91-41 91-91 0-50-41-91-91-91z" />
<glyph glyph-name="motor-bike" horiz-adv-x="1000" unicode="&#xee27;" d="M797 345c-11 0-21-1-31-4l-18 52c55 28 100 27 100 27l16-9 56-4c-33 39-166 32-166 32l28 5s-1 30-18 68c-18 37-37 59-37 59-2-2-3-4-4-6 1 26 1 51 3 77l0 1c0 3 0 6-4 7-10 5-20 10-32 10-3 0-6-2-7-5-4-14-5-28-3-41-1 2-2 4-4 6-2 4-5 5-8 3-3 1-7 0-8-4-3-7-8-11-8-18-1-12 13-20 22-25 1 0 3-1 4 0 5-17 6-35 5-53-26-17-16-33-16-33l-5-8s-25 35-106-17-145-19-198 0c-54 19-251 24-251 24 97-15 140-94 140-94l-76 47c-34-4-25-39-25-39l140-86c28 10 59-20 59-20l29-52-40-11c-21 51-71 88-130 88-78 0-141-63-141-141s63-141 141-141c77 0 140 63 140 141 0 5 0 10 0 15l56 10s2 2 16-12c6-6 14-7 22-6 13-4 43-13 77-13 27 0 56 5 83 22 40 25 64 70 71 135 18 19 36 35 54 47l16-47c-49-22-83-71-83-128 0-78 63-141 141-141 77 0 141 63 141 141 0 78-64 141-141 141z m-594-262c-53 0-97 44-97 98s44 98 97 98c40 0 74-24 89-57l-106-31 4-22 111 19c0-2 0-5 0-7 0-54-44-98-98-98z m380 138c-43-26-99-16-126-8 3 39 17 129 86 150 67 20 90-10 97-26-6-56-25-95-57-116z m125 314c-4-2-7-3-10-4 0 19-2 38-8 56 3-1 5 0 7 1 4 4 8 7 12 11 0-21 0-43-1-64z m89-428c-54 0-98 43-98 97 0 38 22 71 53 87l31-91c2-6 8-10 14-10 1 0 3 0 4 0 8 3 12 11 9 19l-30 91c5 1 11 2 17 2 54 0 97-44 97-98 0-54-44-97-97-97z m-322 115c128-23 148 90 148 90h-127l-21-90z" />
<glyph glyph-name="motor-biker" horiz-adv-x="1000" unicode="&#xee28;" d="M217 283c-71 6-134-41-150-110-2-7-3-13-4-19v-28c1-4 2-9 3-14 14-74 85-125 159-114 80 11 135 83 123 163-12 73-67 117-131 122z m-11-237c-51 0-93 41-94 94 0 51 41 93 94 94 51 1 93-41 94-92 0-54-41-95-94-96z m263 559c-18-2-36-5-55-7v-50c15 4 32 0 43 13 2 2 4 3 6 5 20 14 41 23 65 19 11-2 22-7 34-10 16 24 19 50 7 78-9 24-25 42-52 48-7 1-14 2-21 3h-9c-1 0-3-1-4-1-21-5-40-12-54-29-9-11-14-24-16-39 19 3 38 6 56 9v-39z m171-437c7 57 37 97 92 117 36 13 73 15 111 14 2 0 6 1 8 2 12 12 13 34 4 47-3 5-6 7-11 6-26 0-53 0-79 0h-54c-9 29-31 47-45 72-3-2-4-3-5-4-27-21-55-42-82-64-4-3-8-5-14-5-25 1-50 0-74 1-16 0-31 0-46 0-19 1-30-7-35-25-1-2-2-4-2-7-31 12-58 28-74 59 48 36 94 72 141 108 30-42 60-84 90-126 32 24 63 47 94 70-11 16-22 31-34 46-20 26-40 53-62 78-19 22-61 24-84 6-47-35-93-70-140-105-6-5-12-9-19-14-1 9-2 16-2 26-33-13-63-25-94-38-8-4-14-9-21-13-22-17-34-39-31-67 2-18 8-34 16-50 1-2 5-3 7-3 11-2 22-2 33-4 41-6 75-25 101-58 20-26 32-56 38-88 3-16 13-26 26-34 6-3 13-6 19-9 31-12 63-14 96-15 38-2 76-2 113-2 7 0 14 0 20 0 0 2 1 4 0 6-3 24-4 48-1 73z m155 115c-78 0-142-58-144-139-2-82 62-147 143-148 78 0 143 65 144 144 0 78-65 143-143 143z m-1-237c-52 0-94 42-94 94 0 52 42 94 94 94 52-1 94-42 94-94 0-52-42-94-94-94z" />
<glyph glyph-name="oil-truck" horiz-adv-x="1000" unicode="&#xee29;" d="M657 259h-566c-16 0-28-13-28-29v-2c0-14 8-25 20-28 10 25 35 43 64 43 29 0 54-18 63-44h328c10 26 35 44 64 44 29 0 54-18 63-43 12 3 21 14 21 28v2c0 16-13 29-29 29z m-53-26c-27 0-50-23-50-51s23-50 50-50c28 0 51 23 51 50s-23 51-51 51z m0-86c-19 0-35 16-35 35s16 35 35 35 35-15 35-35-15-35-35-35z m-460 86c-27 0-50-23-50-51s23-50 50-50c28 0 51 23 51 50s-23 51-51 51z m0-86c-19 0-35 16-35 35s16 35 35 35 35-15 35-35-15-35-35-35z m722 295c-6 8-14 10-19 10h-127c-5 0-9-5-9-10v-229c0-5 4-9 9-9h34c11 23 34 39 62 39s51-16 62-39h50c5 0 10 4 10 9v114l-72 115z m17-99h-135c-5 0-9 4-9 9v72c0 5 4 10 9 10h79c15 0 19-4 22-10l44-72c0-5-5-9-10-9z m47-117c0-5-4-9-9-9s-9 4-9 9v17c0 5 4 9 9 9s9-4 9-9v-17z m-117 7c-27 0-50-23-50-51s23-50 50-50c28 0 51 23 51 50 0 28-23 51-51 51z m1-86c-20 0-35 16-35 35s15 35 35 35 35-15 35-35-16-35-35-35z m-192 402h-495v-273h495v273z m-205-172c-4-22-25-35-43-35-16 0-36 11-41 32l-2 6v10c2 9 6 18 11 26 4 8 8 15 13 23 8 14 15 29 19 45h1l0-2c4-14 10-27 17-40 7-12 14-25 21-37 5-9 5-18 4-28z m-306-101v273c-26 0-47-21-47-47v-178c0-26 21-48 47-48z m574 48v178c0 26-21 47-48 47v-273c27 0 48 22 48 48z m-435 231h75c4 0 8 3 8 6 0 4-4 7-8 7h-75c-5 0-8-3-8-7 0-3 3-6 8-6z m174 0h75c4 0 8 3 8 6 0 4-4 7-8 7h-75c-5 0-8-3-8-7 0-3 3-6 8-6z" />
<glyph glyph-name="rickshaw" horiz-adv-x="1000" unicode="&#xee2a;" d="M791 272c-13-2-18 3-22 14-12 36-25 72-38 108-2 4-8 10-12 10-19 2-37 1-56 1-2 0-5-2-5-5v-27c0-3 3-6 5-5 11 0 22 2 30-2 7-3 11-14 17-25 1-2 0-4-3-4-69 0-133 0-196 0-4 0-7 3-10 5-3 2-4 5-4 6 1 2 4 3 7 3h32c3 0 5 2 5 5v26c0 2-2 5-5 5h-85c-3 0-5-3-5-5-1-15-3-28 10-40 5-5 8-20 4-27-24-49-50-97-76-145-2-4-7-9-11-10-14-1-28 0-41 0-3 0-6 2-7 5-21 86-90 113-148 106-66-8-115-63-114-128 0-67 48-120 117-128 56-7 125 23 145 105 0 3 3 5 6 5 2 1 4 1 6 1 73 0 145 0 217-1 14 0 24 4 34 13 46 44 92 86 139 130 3 2 6 2 7-1 5-8 3-13-5-19-45-32-62-76-53-129 12-73 87-119 161-102 73 17 116 91 96 162-14 47-63 100-142 93z m-509-152c-7-40-48-70-91-68-47 2-88 40-90 85-2 53 34 92 88 98 42 4 84-27 95-70 0-3-2-5-5-5h-84c-3 0-6-3-6-6v-24c0-2 3-5 6-5h83c3 0 5-2 4-5z m144 45c19 37 38 72 58 109 1 3 3 3 4 0 18-37 35-72 52-109 1-2 0-4-3-4h-108c-3 0-5 2-3 4z m150 17c-18 38-36 76-55 116-1 2 0 4 3 4h175c3 0 4-1 2-3-40-40-79-79-119-118-2-2-5-2-6 1z m146-80c-20 39-8 89 26 111 2 2 5 1 6-2 7-18 13-36 20-55 1-3 4-4 7-3 9 3 17 5 26 8 3 1 4 4 3 7-7 20-13 39-19 58-1 3 0 6 3 6 37 10 82-15 98-56 18-43-3-96-46-115-47-22-100-4-124 41z m-545 344c3-1 5 1 5 4-1 20-2 38-3 60 0 2 1 3 3 1 25-30 47-57 70-85 2-2 5-2 7 0 53 80 104 157 156 236 2 2 1 4-2 5-59 7-114 13-170 19-6 1-14-1-19-4-33-23-65-46-97-69-4-3-7-9-8-13 0-44 0-87 0-131 1-4 5-11 8-12 16-4 32-7 50-11z m97 148h56c3 0 4-2 3-4-20-33-40-65-61-101-2-2-3-2-3 1v99c0 3 2 5 5 5z m-34-2v-108c0-3-1-4-3-1-18 22-34 43-51 64-2 3-1 6 1 8 15 14 22 38 48 41 3 1 5-2 5-4z m29-227c-4 34-23 49-58 53-29 3-57 11-87 18-3 0-5-1-5-4 0-33 0-65 1-96 0-4 5-10 9-11 84-32 169-63 254-94 3-1 6 0 7 3 2 11-3 17-13 22-13 6-24 16-38 21-41 16-64 46-70 88z" />
<glyph glyph-name="rocket-alt-1" horiz-adv-x="1000" unicode="&#xee2b;" d="M527 765c22-22 45-45 65-69 30-35 51-76 68-121h-320c3 8 5 16 9 23 33 71 77 134 141 182 2 2 4 5 6 8h4c2 0 14-11 27-23z m-355-638l90 51c6 4 12 8 19 11 15-62 30-123 45-187-50-25-101-50-153-76-15-7-28 1-28 18v134c0 18 12 40 27 49z m654-201c-51 26-102 51-152 76 15 62 29 123 45 187 35-21 72-42 108-62 15-9 28-31 28-49v-134c0-17-13-25-29-18z m-324 622c49 0 99-1 149 0 16 1 22-6 26-20 26-90 31-182 20-274-10-80-29-158-55-234-5-12-10-17-23-17-79 1-158 1-238 0-11 0-18 3-22 15-38 112-65 226-60 345 3 56 16 111 25 167 2 16 11 18 25 18 51-1 102 0 153 0z m-95-226c1-41 10-80 39-112 32-34 75-34 107 0 52 55 53 166 3 223-34 38-78 38-112 0-28-32-36-70-37-111z m-38-345h261c-5-19-10-38-16-56-1-4-8-8-13-8-68-1-135-1-202 0-5 0-12 6-14 10-6 17-10 34-16 54z" />
<glyph glyph-name="rocket-alt-2" horiz-adv-x="1000" unicode="&#xee2c;" d="M418 110c-32-32-49-8-68 11-27 27-55 55-83 83-18 19-49 34-11 70l-10 2c-8-2-16-3-23-7-28-17-57-32-84-51-32-22-41 10-57 23-17 13-1 24 7 33 39 45 78 90 119 133 8 9 22 14 34 16 21 3 42 6 63 4 36-3 55 16 74 43 75 104 164 192 280 252 65 34 65 34 116-17 36-37 71-74 109-108 13-13 14-22 8-38-40-97-101-179-180-248-37-33-79-61-117-93-9-8-17-23-19-36-4-30-3-60-7-90-1-10-7-22-15-30-45-40-92-80-138-120-11-10-22-17-32-2-10 15-42 20-24 49 18 31 36 61 54 92 4 6 6 13 9 20-2 3-3 6-5 9z m253 478c-36 0-67-30-67-66 0-33 30-64 64-65 34-1 67 32 67 66 0 33-31 64-64 65z m-609-665c19 12 36 23 51 36 8 6 16 16 19 25 3 9 2 22-3 28-4 4-18 1-27 0-4-1-9-5-15-9-6 42 18 66 45 89 2 3 7 3 9 6 9 11 18 23 27 34-12 4-23 7-42 12 11 11 21 24 33 31 36 21 88 14 120-13 42-35 55-78 40-127-16-52-51-83-101-100 0 2-1 4-1 5l-2 43c-13-7-27-11-39-20-15-11-28-26-43-37-26-18-36-18-71-3z m848 683c-53 53-101 102-153 156 54 9 107 19 161 26 21 2 21-16 18-31-8-50-17-99-26-151z" />
<glyph glyph-name="rocket" horiz-adv-x="1000" unicode="&#xee2d;" d="M937 788s-131 3-262-62c-40-19-84-48-120-84-59-59-151-168-222-255h-161l-73-110 124-33c0-4 2-11 5-19l-19-42s-8-15 47-73c58-58 76-51 76-51l46 20c7-2 12-2 15-2l34-128 109 73v165c89 72 197 161 255 218 37 36 66 80 88 120 62 131 58 263 58 263z m-255-328c-40 0-73 32-73 73s33 72 73 72c40 0 73-32 73-72s-33-73-73-73z m-557-485s-7 106 47 175c-3 7-7 11-11 18l-25-22c-84-84-73-233-73-233s149-11 233 73l22 25c-7 4-11 8-18 11-69-54-175-47-175-47z" />
<glyph glyph-name="sail-boat-alt-1" horiz-adv-x="1000" unicode="&#xee2e;" d="M572 159c84 0 168 0 253 0-8 29-247 581-270 621v-322c0-91 0-183 0-274 0-12-4-25 17-25z m32-28c-11 0-23 1-27-13-5-23-18-43-19-68h215c-6 19-13 36-16 53-5 24-17 30-41 29-37-2-74-1-112-1z m-135-77c5 31 5 685 0 727-119-228-234-451-353-678 126 8 244 10 353-49z m94-33c-24 0-33 5-35 24v187c0 171 0 343 0 514 0 8-1 16 0 24 0 10-1 18-15 17-11 0-12-7-12-15l0-24c0-227 0-453-1-679l0-20s1-27-22-27h0c-63 2-126-2-188 4-57 6-112 21-172 35 26-52 53-97 91-134 10-10 21-15 36-15 188 1 376 1 563 1 12 0 22 0 28 13 14 31 30 61 48 96-112 0-217 1-321-1z" />
<glyph glyph-name="sail-boat-alt-2" horiz-adv-x="1000" unicode="&#xee2f;" d="M261 115c-1-1-2-3-2-4-2-3-2-7 1-9 3-3 6-4 9-2 4 2 8 4 12 5 94 41 191 70 291 90 10 1 14 6 13 16 0 31 0 62 0 92 0 142 0 284 0 425 0 9 2 11 10 8 33-11 66-14 100-4 21 7 42 6 62 2 4-1 8-3 10 2 1 4-2 6-6 8-18 9-36 16-56 18-16 2-32-1-48 0-26 2-51 10-75 23-11 6-18 2-19-11 0-4 0-8 0-11v-71c-4 3-6 5-8 6-25 19-49 38-73 57-10 7-16 4-17-7-11-91-30-179-54-267-36-128-83-251-150-366z m-9 53c40 75 73 153 99 233 55 155 75 265 63 276-6 6-81 63-81 63-17 13-34 26-51 39-9 6-14 4-16-7-1-6-1-12-2-18-14-95-33-189-58-281-33-124-75-244-137-357-2-4-5-8-1-13 5-5 9-2 14 0 50 22 101 40 154 53 8 1 13 5 16 12z m669 72c-2 0-4-1-5-1-93-18-186-38-277-67-66-21-132-46-199-67-99-31-199-52-304-44-6 1-6-3-6-7-1-25 8-46 28-62 5-4 11-7 19-7l61 1c48 18 141 40 283 19 65-9 120-5 165 5 7 59 33 109 78 151 13 12 26 21 43 26l1 0c0 1 1 1 1 1l97 26c6 2 12 4 18 5 7 2 11 6 10 13-1 7-7 8-13 8z m-303 330c-6-4-3-9-1-14 26-75 38-151 29-230-2-11-4-21-5-32 0-6 4-9 11-8 72 15 142 7 211-17 5-1 9-2 12 3 4 5 0 8-3 12l-241 281c-3 4-7 9-13 5z m-97-574c-221 31-323-39-323-39s53 29 328 9l328 120s-111-122-333-90z m36-53c-177 26-258-31-258-31s42 23 262 8l262 95c0 0-89-97-266-72z" />
<glyph glyph-name="sail-boat" horiz-adv-x="1000" unicode="&#xee30;" d="M826 158c-16 46-29 94-51 137-75 152-185 274-331 362-13 7-18 15-17 30 2 18 1 37 1 56-18-17-32-32-48-45-24-20-49-39-74-58l-27-21 2-4c45 9 89 19 137 29-2-32 3-64-7-90-66-171-151-331-267-475-5-7-10-14-18-24 237 27 469 54 703 81-1 8-1 15-3 22z m-396-48v528c38-176 59-352 0-528z m-367-91c7-17 14-31 19-45 5-13 13-16 25-16 202 0 404 1 606-1 48-1 87 14 124 41 11 9 22 16 32 25 28 25 54 53 69 93-294-32-583-65-875-97z" />
<glyph glyph-name="scooter" horiz-adv-x="1000" unicode="&#xee31;" d="M768 514h-263v-50h293l-30 50z m-610-233c-48 0-87-39-87-88 0-49 39-88 87-88s88 39 88 88c0 49-39 88-88 88z m0-126c-20 0-37 17-37 38 0 21 17 38 37 38 21 0 38-17 38-38s-17-38-38-38z m347 293s183-201 0-201h-33s-272 24-107 291l27 27h49v16s-74 31-80 0c-7-31-164-220-164-220-55 13-98-20-134-80 66 20 131 45 183-14 53-59 28-69 405-69 0 0-69 4-24 49h62c-12-15-20-33-20-54 0-49 40-88 88-88 49 0 88 39 88 88 0 21-7 39-19 54h46c100 0-67 201-67 201l-300 0z m252-293c-21 0-38 17-38 38 0 21 17 38 38 38 21 0 38-17 38-38s-17-38-38-38z m156 149h25v-47h-25v47z m-568 280l-36 11v-47h25l11 36z" />
<glyph glyph-name="sea-plane" horiz-adv-x="1000" unicode="&#xee32;" d="M936 258c-1 10-11 7-18 7l-184 0c-5 0-12-3-15 6-9 24-18 49-28 74 17 3 32 6 47 8 42 4 75 21 94 61 11 22 26 41 40 61l3-2v-106c0-8 0-15 9-15 10 0 10 8 10 15v10c0 31 0 62 0 93 0 8 0 13 10 14 9 0 16 6 16 17 0 10-5 16-15 17-10 1-11 7-11 15 1 33 1 66 0 98 0 7 0 15-10 15-10 0-9-8-9-15 0-33 0-67 0-100 0-8-1-13-11-11-63 7-128 9-183 47-18 13-38 14-59 10-78-16-157-28-230-63-51-24-102-31-157-29-20 1-32 7-40 25-14 30-29 60-42 90-6 14-15 19-29 19-16 0-32 1-47 3-13 1-17-2-13-15 14-53 27-107 41-160 11-42 29-57 72-63 83-12 167-25 250-38 9-1 10-4 7-12-8-18-15-37-21-55-3-11-8-15-20-15-63 1-126 1-189 0-18 0-23-6-19-22 2-10 10-11 18-13 38-11 76-20 114-31 8-2 15-1 22 2 38 16 77 16 115 0 30-12 58-12 87 0 39 17 78 16 116 0 29-12 58-12 87 0 34 15 69 15 104 4 6-2 11-5 17-3 21 8 43 16 63 28 12 7 10 18 8 29z m-304 300c12 0 22-1 33-7 15-8 30-16 46-24 11-6 12-12 7-23-10-19-22-34-46-26-21-7-30 3-34 22-3 16-9 30-15 45-4 10-1 12 9 13z m-205-71c-2 10 2 18 13 22 34 15 70 24 107 31 0 0 1 0 1 0 16 3 30 10 46 9 8-22 16-44 22-66 3-8-5-6-9-6-28 0-56 0-84 0-26 0-52 0-78 0-7 0-17-2-18 10z m48-223c-14 1-32-6-40 4-5 5 7 24 11 37 15 39 15 39 57 39 50 0 99 0 149 1 11 0 17-3 21-14 7-22 16-43 24-67-75 0-149 0-222 0z m414-134c-9 1-19 3-28 7-40 17-79 16-120-1-26-11-54-11-81 0-41 17-81 18-122 0-27-11-55-9-83 0-14 5-28 11-43 13-26 3-50-3-73-12-29-11-58-11-88 0-14 5-28 10-44 12-30 4-56-7-84-16-10-4-25 1-29-8-5-9-1-22-1-33h-1c0-10 1-19 0-29 0-8 3-10 10-9 17 3 32 7 47 13 30 11 59 12 88 0 39-16 78-16 117 0 28 12 56 12 84 0 40-16 80-16 120 1 27 11 54 11 81 0 41-17 82-17 123 0 26 11 52 9 78 1 16-5 32-11 49-14 12-2 14 2 14 13-1 15-1 31 0 47 1 11-4 14-14 15z" />
<glyph glyph-name="ship-alt" horiz-adv-x="1000" unicode="&#xee33;" d="M348 735c0 29 24 53 53 53 24 0 44-17 50-39l2 1c21 0 39-18 39-40 0-5-1-10-3-14 13 0 24-11 24-25s-11-24-24-24c-13 0-24 11-24 24l0 2c-4-1-8-2-12-2-13 0-25 7-32 17-6-3-13-5-20-5-29 0-53 24-53 52z m24-258h-71c-13 0-23-10-23-22v-152l222 106 222-106v152c0 12-10 22-23 22h-327z m256 23v14c0 12-10 22-23 22h-55l-10 91h-80l-10-91h-55c-13 0-23-10-23-22v-14h256z m-128-116l-330-158 98-285c45 21 103 41 163 41 96 0 173-46 275-69h17l107 313-330 158z" />
<glyph glyph-name="ship" horiz-adv-x="1000" unicode="&#xee34;" d="M817 121c-24-11-50-13-76-9l-5 0c-3 1-6 7-6 14-2 18-4 35-6 51-9 54-5 106 23 155 14 26 25 55 37 82 5 12 0 21-9 28-12 8-23 15-35 22-8 4-12 9-12 19 1 36 1 71-1 107-1 21-16 38-38 42-4 1-8 1-13 2-7 0-13 6-13 13 0 8 0 15 0 22 0 35-20 54-55 54-10 1-20 1-31 0-7 0-13 6-13 13v39c0 7-6 13-13 13h-104c-7 0-13-6-13-13v-39c0-7-6-12-13-12-12 0-23 0-34 0-31-1-50-20-50-51 0-8 0-17 0-26 0-7-3-12-6-13-2 0-4 0-6 0-34-1-54-20-54-54 0-32 0-63 1-94 0-12-4-18-14-23-9-3-17-9-25-15-21-14-24-21-14-45 12-27 24-54 38-80 16-33 25-67 22-104-3-30-6-61-9-92 0-7-6-14-13-15-23-2-45 2-68 11-14 5-26 14-39 21-8 4-15 6-24 7-7 1-12-6-12-13v-43c0-7 6-12 12-14 14-3 26-10 38-18 35-21 72-27 112-19 13 2 25 8 37 14 6 3 16 4 23 2 49-17 99-34 148-51 10-3 22-3 31 0 53 18 105 36 157 54 7 2 17 1 23-2 55-30 109-28 164 9 4 3 10 6 15 8 7 3 12 11 12 18v44c0 7-5 10-12 8-7-3-13-6-19-9-13-6-25-13-38-18z m-428 567c28 0 56 0 84 0h135c15 0 18-3 19-19 0-7 0-14 0-22 0-7-6-12-13-12h-228c-7 0-13 5-13 12 0 10 0 20 0 29 1 9 7 12 16 12z m43-90h236c21 0 24-3 24-23v-74c0-7-5-10-12-8-24 10-46 19-69 28-32 11-63 23-95 32-10 3-23 4-32 0-55-19-110-40-164-60-2-1-4-1-6-2-3-2-6 0-7 2 0 2 0 4 0 5 0 26 0 51 0 77 0 19 4 23 23 23 34 0 68 0 102 0z m309-614c-22 3-41 15-60 26-31 18-63 17-94 0-7-4-13-8-20-11-26-15-53-18-83-15-19 2-37 10-54 21-18 12-38 18-61 18-21-1-39-8-57-19-39-24-81-26-123-9-14 6-26 15-39 22-8 4-15 6-24 7-7 0-12-6-12-13v-43c0-7 6-13 12-14 14-3 26-11 38-18 35-22 72-27 112-20 21 5 40 15 57 27 16 10 33 13 51 11 16-1 29-10 43-18 55-32 110-32 164 4 31 20 61 20 92 0 59-37 117-37 176 2 4 4 10 6 15 9 7 3 12 11 12 18v43c0 7-5 11-12 8-7-2-13-5-19-8-13-6-25-13-38-18-24-11-50-13-76-10z" />
<glyph glyph-name="speed-boat" horiz-adv-x="1000" unicode="&#xee35;" d="M711 377l-64 138h-309v-41h66l45-107-386-30 102-151h630c81 0 143 191 143 191l-227 0z m-209-10l-46 107h173l49-97-176-10z" />
<glyph glyph-name="taxi" horiz-adv-x="1000" unicode="&#xee36;" d="M936 307c-1 41-24 72-63 86-12 5-18 11-22 22-20 54-42 109-63 163-20 53-50 73-107 73h-38c0 2 1 4 1 6 0 31 0 61 0 91 0 21-12 33-33 33-70 0-140 0-209 0-22 0-34-12-34-33v-90c0-3 1-4 1-7h-51c-56 0-86-20-106-72-22-56-44-112-66-168-2-6-7-13-13-15-49-20-70-51-70-104v-223c0-2 1-4 3-4 18 0 34 0 51 1 13 0 18-4 17-18 0-25 0-51 1-76 3-35 39-60 73-51 32 8 50 30 50 66 1 24 1 49 1 74 0 2 1 4 3 4h476c2 0 4-2 4-4 0-25-1-49 0-73 1-50 38-79 82-66 24 8 40 28 41 53 1 28 0 57 0 87 0 2 2 3 4 3h64c2 0 4 2 4 4 0 81 2 159-1 238z m-332 356h-39v39h39v-39z m-78 74c0 1 3 4 5 4 11 1 22 0 34 0v-39h-39c0 12 0 23 0 35z m-1-74h-38v39h38v-39z m-78 78h39v-39l-40 1 1 26c0 4 0 8 0 12z m-39-38h38v-40h-38c0 13 0 26 0 40z m-210-502c-37 0-67 31-66 68 1 36 31 67 66 67 36 0 65-31 64-69 0-37-28-66-64-66z m15 198c-2 0-3 2-3 4 0 2 1 4 1 6 18 49 36 97 55 146 11 29 21 35 51 35h156v-8c0-2 1-3 3-3h48c2 0 3 1 3 3v8c52 0 104 0 156 1 24 0 40-8 49-30 19-52 38-104 57-156 1-1 1-2 1-3 0-1-2-3-4-3h-36c-12 38-47 66-88 66s-77-28-88-66h-361v0z m449 56c36 0 67-23 78-56h-156c11 33 42 56 78 56z m141-254c-37 0-65 29-66 65 0 39 28 69 64 70 36 0 67-32 67-68 0-37-30-66-65-67z" />
<glyph glyph-name="tractor" horiz-adv-x="1000" unicode="&#xee37;" d="M915 421c-3 0-7 0-10 0h-174v10c0 35 0 70 0 105 0 16 0 32 2 48 2 21 7 42 33 48v33c-18 1-39-3-55-10-33-16-48-44-49-79-2-48-1-96-1-144v-11h-105c-4 13-7 25-10 37-20 80-39 159-59 238-4 18-11 33-30 40h-293c-22-7-29-23-29-45 1-77 1-154 1-231 0-7-3-10-8-14-19-13-38-24-55-40-18-16-6-48 18-54 17-4 28 4 40 13 61 45 129 60 202 42 82-21 137-73 167-152 10-25 13-51 14-78 2-24 20-39 42-35 17 3 28 18 28 37 0 10 0 21 0 31h98c-69-60-59-152-10-199 49-48 128-52 180-8 26 23 42 51 46 85 6 50-12 91-51 124 21 8 33 22 40 42 8 23 17 46 25 69 8 22 17 44 24 66 5 17-4 30-21 32z m-709 70v174c3 0 7 1 10 1 65 0 131 0 197 0 7 0 10-2 12-9 13-53 27-106 40-159 1-2 1-4 2-7-88 0-174 0-261 0z m560-463c-42 0-78 36-78 78 1 42 36 77 78 77 42 0 77-35 77-78 0-42-35-77-77-77z m-287 196c1 3 1 7 0 10-2 9-5 17-9 25-2 4-8 6-11 10-4 5-10 12-9 16 1 7 1 11-3 15-6 7-11 14-17 21-2 2-6 5-9 5-13 1-17 4-19 16-1 2-2 5-4 7-9 5-18 11-28 16-3 1-7-1-11 0-7 1-17 2-18 5-3 9-9 10-15 11-8 2-16 4-25 5-3 0-7-1-9-3-8-6-16-6-24 1-2 2-6 3-10 3-9-1-18-2-28-5-4-1-6-6-11-8-5-3-13-8-17-6-6 2-11 2-16-1-8-4-16-8-24-13-3-2-5-7-6-11-1-5-10-12-16-12-4 0-9-1-12-4-6-6-13-13-18-21-3-3-2-9-4-13-2-6-5-15-9-16-7-2-10-5-12-10-4-8-8-16-10-24-1-5 2-10 2-15-1-6 0-15-4-18-6-4-8-8-8-14-1-7-2-13-2-19v-3c1-5 2-11 5-14 8-8 9-15 3-23-2-3-2-7-2-9 3-10 6-20 10-30 1-3 3-6 5-7 12-6 14-10 12-22-1-2-1-3 0-4 8-11 15-22 24-32 1-2 6 0 8-1 5-4 14-9 14-12 0-9 4-12 9-16 7-5 14-10 21-13 4-2 9-2 13-1 5 1 18-3 18-7 1-7 5-9 11-11 8-2 16-5 25-5 4-1 9 3 14 3 6 1 16 3 18 0 6-7 12-7 18-6 8 0 16 1 23 2 4 1 8 3 10 5 7 10 13 12 23 7 3-1 7-1 10 0 9 4 18 8 27 14 3 1 4 7 6 10 5 5 11 13 15 12 8-2 12 1 17 6 6 6 12 11 17 18 2 2 4 6 4 9 0 12 2 16 14 20 3 1 6 4 7 6 4 9 9 18 12 27 1 4 0 9-1 13-3 5 0 16 5 20 3 2 7 7 7 10 2 16 2 31 3 46 0 4-2 8-4 10-10 10-11 13-5 25z m-204-182c-73 0-133 60-133 133 0 74 60 134 133 134 74 0 135-61 134-134 0-73-60-133-134-133z m1 197c-35 0-64-29-64-63 0-35 29-64 64-64 34 0 63 29 63 63 0 35-29 64-63 64z" />
<glyph glyph-name="train-line" horiz-adv-x="1000" unicode="&#xee38;" d="M200-87c29 49 57 98 86 148-16 0-29 1-43 0-27 0-43 17-43 44l-1 538c0 18 0 36 1 54 0 24 16 40 40 40 39 0 78 0 118 0h17c0 7 0 13 0 19 0 21 10 31 31 32 18 0 36 0 53 0 43 0 86 0 129 0 28 0 37-10 37-37v-13h21c37 0 75-1 112 0 26 0 42-17 42-43v-464c0-42 0-85 0-127 0-27-16-42-43-43-13 0-27 0-43 0 29-50 57-99 86-149h-600v1z m76 674v-249h198v249h-198z m449-1h-199v-248h199v248z m-29-649c-2 4-3 6-4 8-5 13-13 17-28 17-110-1-221-1-332-1-16 0-24-7-26-24l390 0z m-28 50c-4 6-7 11-10 16-3 7-8 9-15 9-22 0-45 0-67 0-74 0-148 0-221 0-3 0-8-1-10-3-5-6-8-14-13-22l336 0z m-168 650c29 1 50 23 50 53-1 25-24 47-50 47-27 0-50-23-50-50 0-27 23-50 50-50z m174-450c29 0 51 22 51 50 1 27-23 50-50 50-27 0-49-22-50-49 0-28 22-51 49-51z m-350 0c29 1 51 22 51 51-1 27-23 49-50 49-28 0-50-23-50-51 0-27 22-49 49-49z m39-149h274c-3 6-6 10-8 15-2 7-7 9-15 9-9-1-18-1-27-1-68 0-137 0-205 0-3 0-7-1-9-4-4-5-6-12-10-19z" />
<glyph glyph-name="train-steam" horiz-adv-x="1000" unicode="&#xee39;" d="M664 373v-352c0-4 0-4 1-1 2 11 6 21 11 30 6 11 14 21 23 29 9 9 20 15 32 20 12 5 25 7 38 7 27 0 51-9 71-26 18-16 30-36 34-59 1-4 1-4 1 0v285c0 4 2 10 4 13l38 55c2 3 1 6-3 6h-243c-4 0-7-3-7-7z m170-199h-129c-4 0-7 3-7 7v155c0 4 3 7 7 7h129c4 0 7-3 7-7v-155c0-4-3-7-7-7z m-648-96l-102-144c-2-4-2-9 0-12l3-4c3-3 7-5 11-5h92c4 0 7 3 7 7v73c0 4 3 7 7 7h28c4 0 7 4 7 7v261c0 4-3 7-7 7h-34c-4 0-7-3-7-7v-178c0-3-2-9-5-12z m647-11c-8 8-18 14-29 19-10 5-22 7-35 7-12 0-24-2-35-7-11-5-20-11-29-19-8-8-14-18-19-29-4-11-7-23-7-35 0-13 3-24 7-35 5-11 11-21 19-29 8-8 18-15 29-19 11-5 23-8 35-8 13 0 25 3 35 8s21 11 29 19c8 8 15 18 20 29 4 11 7 22 7 35 0 12-3 24-7 35-5 11-12 21-20 29z m-191 175h-24c-3 0-7 3-7 7v28c0 3-3 7-7 7h-80c-3 0-7-3-7-7v-28c0-4-3-7-7-7h-24c-3 0-7 3-7 7v28c0 3-3 7-7 7h-79c-4 0-7-3-7-7v-28c0-4-4-7-7-7h-14c-4 0-7 3-7 7v54c0 3-3 7-7 7h-89c-3 0-7-4-7-7v-196c0-4 3-7 7-7h380c3 0 7 3 7 7v127c0 4-3 8-7 8z m-383-242c2 0 4 2 6 4 1 1 2 2 3 3 8 8 19 13 31 13 12 0 23-5 31-13l3-3c2-2 6-4 10-4h16c4 0 8 2 9 4 1 1 2 2 3 3 9 8 19 13 32 13s23-5 32-13l3-3c1-2 5-4 9-4h16c4 0 8 2 10 4 1 1 1 2 3 3 8 8 19 13 31 13 12 0 23-5 31-13l3-3c2-2 6-4 10-4h10c4 0 8 2 10 4 1 1 2 2 3 3 8 8 19 13 31 13 12 0 23-5 31-13l3-3c2-2 4-4 6-4 2 0 3 3 3 7v73c0 4-3 7-7 7h-378c-4 0-7-3-7-7v-73c-1-4 1-7 3-7z m378-12c-9 9-19 13-31 13-13 0-23-4-32-13-2-2-4-4-5-6-5-8-8-16-8-26 0-12 5-22 13-31 9-8 19-12 32-12 12 0 22 4 31 12 8 9 13 19 13 31 0 10-3 18-8 26-1 2-3 4-5 6z m-98 0c-9 9-19 13-31 13-13 0-24-4-32-13-2-2-4-4-6-6-5-8-7-16-7-26 0-12 4-22 13-31 9-8 19-12 32-12 12 0 22 4 31 12 8 9 12 19 12 31 0 10-2 18-7 26-2 2-3 4-5 6z m-209 0c-8 9-19 13-31 13-12 0-23-4-31-13-2-2-4-4-6-6-5-8-7-16-7-26 0-12 4-22 13-31 8-8 19-12 31-12 12 0 23 4 31 12 9 9 13 19 13 31 0 10-2 18-7 26-2 2-4 4-6 6z m105 0c-9 9-19 13-32 13s-23-4-32-13c-2-2-3-4-5-6-5-8-8-16-8-26 0-12 5-22 13-31 9-8 20-12 32-12s23 4 32 12c9 9 13 19 13 31 0 10-3 18-8 26-1 2-3 4-5 6z m-180 455v-110c0-4 4-7 7-7h89c3 0 7 3 7 7v110c0 4-3 7-7 7h-88c-4 0-8-3-8-7z m8 22h88c4 0 8 3 10 6l26 48c2 4 0 6-4 6h-44c-4 0-6 3-5 7 8 19 20 38 36 46 37 17 36-36 121 5 86 41 76 13 104 0 28-12 50-28 110 4 59 31 58-11 65-11s72-37 98 44c26 81-49 119-78 119-27 0-52-38-89-11-36 29-51 23-105 13-54-11-60 5-84 17-24 12-89 62-138-4-49-64-9-82-32-96-23-14-52-42-54-61-1-16-12-38-8-65 0-4-2-7-6-7h-44c-4 0-5-3-4-6l26-48c2-3 7-6 11-6z" />
<glyph glyph-name="tram" horiz-adv-x="1000" unicode="&#xee3a;" d="M583 653l50 111c81-15 94-43 94-44 1-2 3-4 6-4 1 0 1 0 2 1 3 1 5 4 4 8-1 2-25 63-239 63s-238-61-239-63c-1-4 0-7 4-8 3-2 6 0 8 3 0 1 13 29 94 44l50-111c-198-22-228-120-228-153v-424c0-44 36-80 79-80h43l-49-74c-2-3-1-7 1-9 2 0 3-1 4-1 2 0 4 1 5 3l54 81h348l54-81c1-2 3-3 5-3 1 0 3 1 4 1 2 2 3 6 1 9l-49 74h42c44 0 80 36 80 80v424c0 35-31 132-228 153z m-204 114c31 5 70 8 121 8s89-3 120-8l-50-113c-22 2-45 3-70 3s-49-1-70-3l-51 113z m198-205v-5c0-9-7-17-17-17h-121c-9 0-17 8-17 17v5c0 10 8 17 17 17h122c9 0 16-7 16-17z m-252-488c-32 0-58 26-58 59 0 32 26 58 58 58s58-26 58-58c0-33-26-59-58-59z m350 0c-33 0-59 26-59 59 0 32 26 58 59 58 32 0 58-26 58-58 0-33-26-59-58-59z m58 189c0-18-15-33-34-33h-399c-18 0-33 15-33 33v205c0 19 15 34 33 34h399c19 0 34-16 34-34v-205z" />
<glyph glyph-name="truck-alt" horiz-adv-x="1000" unicode="&#xee3b;" d="M97 221v-3c0-16 10-29 24-33 12 30 41 51 75 51 34 0 63-22 75-52h373v70h-513c-19 0-34-15-34-33z m96 3c-33 0-59-27-59-60 0-32 26-59 59-59 33 0 59 27 59 59s-26 60-59 60z m0-101c-23 0-41 19-41 41s18 41 41 41 41-18 41-41-18-41-41-41z m661 347c-7 9-17 11-23 11h-149c-6 0-11-5-11-11v-269c0-7 5-12 11-12h40c13 28 40 47 72 47s60-19 73-47h59c6 0 11 5 11 12v134l-83 135z m19-117h-158c-6 0-11 5-11 11v84c0 7 5 12 11 12h93c17 0 22-4 26-12l51-84c0-6-5-11-12-11z m56-138c0-6-5-10-11-10-6 0-10 4-10 10v20c0 6 4 11 10 11 6 0 11-5 11-11v-20z m-137 9c-33 0-59-27-59-60 0-32 26-59 59-59s59 27 59 59c0 33-26 60-59 60z m0-101c-23 0-41 19-41 41s18 41 41 41 41-18 41-41-18-41-41-41z m-714 152h550c9 0 16 7 16 15v290c0 9-7 16-16 16h-550c-8 0-15-7-15-16v-290c0-8 7-15 15-15z" />
<glyph glyph-name="truck-loaded" horiz-adv-x="1000" unicode="&#xee3c;" d="M322 235c-43 0-77-34-77-77 0-43 34-77 77-77 42 0 77 34 77 77 0 43-35 77-77 77z m0-115c-22 0-39 17-39 38 0 21 17 39 39 39 21 0 38-18 38-39 0-21-17-38-38-38z m-67 115h-172c-7 0-13-5-13-12v-38c0-7 6-12 13-12h138c4 25 16 46 34 62z m470 0c-43 0-77-34-77-77 0-43 34-77 77-77s77 34 77 77c-1 43-35 77-77 77z m0-115c-22 0-39 17-39 38 0 21 17 39 39 39s38-18 38-39c0-21-17-38-38-38z m200 115h-30v168c0 20-6 39-17 56l-75 111c-19 27-49 44-82 44h-117c-14 0-25-11-25-25v-354h-191c18-16 31-37 34-62h202c7 49 49 87 101 87s93-38 100-87h100c7 0 13 5 13 12v38c0 7-6 12-13 12z m-123 201h-154c-7 0-13 6-13 13v85c0 7 6 13 13 13h94c4 0 8-2 10-6l60-85c6-8 0-20-10-20z m-282-176h-433c-13 0-24 11-24 25v111c0 14 11 25 24 25h433c14 0 25-11 25-25v-111c0-14-11-25-25-25z m-259 198h-174c-13 0-24 11-24 24v112c0 14 11 25 24 25h173c14 0 25-11 25-25v-111c0-14-11-25-24-25z m259 0h-173c-14 0-25 11-25 24v112c0 14 12 25 25 25h173c14 0 25-12 25-25v-112c0-13-11-24-25-24z" />
<glyph glyph-name="truck" horiz-adv-x="1000" unicode="&#xee3d;" d="M917 487c-2 0-5 0-8 0v22c0 23-10 33-32 33-17 0-33 0-50 0v246h-655v-246c-18 0-35 0-53 0-17 0-28-11-28-29 0-9 0-17 0-26-4 0-6 0-9 0-10 0-18-8-18-18-1-43-1-85 0-127 0-10 7-18 18-19 15 0 30 0 45 0 10 1 18 8 18 18 0 43 0 85 0 128 0 10-8 17-18 18-3 0-6 0-9 0v27h54v-300c-19-5-27-14-27-33 0-31 1-63 0-94 0-17 4-30 22-37-18-6-23-18-22-34 1-5 0-10 0-15 1-23 5-29 27-35 0 0 1-1 1-2 0-9 0-17 0-26 0-16 9-25 25-25 29 0 57 0 86 0 15 0 25 9 25 25v29h381c1-1 1-1 1-1 0-10 0-20 0-29 0-15 10-24 24-24 29 0 58 0 87 0 16 0 25 9 25 25 1 9 0 19 0 26 8 5 16 8 21 13 10 9 10 53 1 63-4 4-10 7-14 10 15 8 20 15 20 33 0 31 0 63 0 94 0 23-5 30-27 37v300h54v-27c-4 0-6 0-9 0-10-1-18-8-18-19 0-42 0-84 0-126 0-11 8-19 18-19 15 0 30 0 45 0 11 1 18 9 18 20 1 41 1 83 0 124 0 12-7 19-19 20z m-717 137h107c7 20 16 28 30 28 14-1 23-9 27-27h26c6 19 15 27 29 27 13-1 22-9 27-28 2 0 4 0 5 0h20c6 19 15 28 29 28 14 0 22-8 28-28h25c6 19 14 27 29 28 14 0 23-9 28-27h25c5 18 14 27 28 27s24-9 29-28h107v-82h-27v14c0 24-17 41-41 41-142 0-285 0-428 0-12 0-24 0-36 0-24-1-40-17-40-40 0-5 0-9 0-14h-27c0 26 0 53 0 81z m600-110v-300h-28v300h28z m-488-218c3 15 18 27 35 27 58 0 117 0 175 0 43 0 86 0 129 0 17 0 31-9 37-24 0-1 0-2 0-3h-376z m379-28v-27h-382v27h382z m-491 246h27v-300h-27v300z m27-520c-14 0-27 13-27 27-1 15 12 28 27 29 14 0 27-13 27-27 1-15-12-28-27-29z m55 118c0-5-3-8-8-8-22 0-45 0-67 0-5 0-7 2-7 8 0 13 0 25 0 38 0 6 2 9 8 9 11 0 22 0 33 0 11 0 22 0 33 0 5 0 8-3 8-8 0-13 0-26 0-39z m22 266c-14 0-22 8-23 22 0 39 0 79 1 118 0 16 7 24 23 24 55 0 111 0 167 0v-164c-2 0-4 0-6 0-54 0-108 0-162 0z m5-165h381v-26h-381v26z m342-136c-23-1-47 0-70 0-77 0-155 0-232 0-18 0-33 10-38 27h377c-2-16-18-27-37-27z m40 55h-382v26h382c0-2 0-4 0-6 0-7 0-13 0-20z m1 246c-50 0-100 0-150 0h-15v164h167c16 0 24-8 24-24 0-38 0-76 0-114 1-19-7-26-26-26z m81-384c-15 0-28 13-28 28 0 15 13 27 28 27 14 1 27-12 27-27 0-14-12-28-27-28z m18 110c-10 0-21 0-32 0-11 0-21 0-32 0-6 0-9 3-9 9 0 12 0 25 0 37 0 6 2 9 9 9 21 0 43 0 65 0 6 0 8-2 8-8 0-13 0-26 0-38 0-7-3-9-9-9z" />
<glyph glyph-name="van-alt" horiz-adv-x="1000" unicode="&#xee3e;" d="M201 298c-36 0-64-29-64-64 0-36 28-64 64-64s64 28 64 64c0 35-29 64-64 64z m0-100c-20 0-36 16-36 36 0 19 16 35 36 35 19 0 35-16 35-35 0-20-16-36-35-36z m602 100c-35 0-64-29-64-64 0-36 29-64 64-64s64 28 64 64c0 35-29 64-64 64z m0-100c-20 0-36 16-36 36 0 19 16 35 36 35 20 0 36-16 36-35 0-20-16-36-36-36z m-85 30h-430c-5 0-9-4-9-9v-4c0-5 4-9 9-9h430c5 0 9 4 9 9v4c0 5-4 9-9 9z m219 180c0 14-1 29-4 43-5 20-12 41-20 61-5 12-14 19-29 19-167-1-333-1-499-1-10 0-21 1-31 0-7-1-15-2-21-6-19-13-39-26-56-42-28-28-54-59-81-88-2-2-5-3-7-4-30-6-59-15-87-27-24-11-36-30-38-55-3-22-1-45-1-67 0-5 2-7 7-7 11 0 21 0 32 0h25c4 43 36 69 66 72 46 5 82-29 84-72 3 0 6 0 9 0 145 0 289 0 434 0 7 0 9 2 10 8 7 39 31 58 59 63 43 8 82-20 88-63 0-3 3-8 6-8 17 0 35 0 54 0 0 4 0 7 0 10 0 55 1 109 0 164z m-821-87h-15c-12 0-15 4-12 16 1 2 4 4 7 4 6 1 14 0 20 0 8 0 6-6 7-11 0-5 0-9-7-9z m323 104c0-2 0-5 0-8h-178c0 2 0 4 1 5 22 24 42 50 70 68 9 6 19 10 30 9 22 0 45 0 67 0 8 0 11-1 10-9 0-22 0-43 0-65z" />
<glyph glyph-name="van" horiz-adv-x="1000" unicode="&#xee3f;" d="M201 298c-36 0-64-29-64-64 0-36 28-64 64-64s64 28 64 64-29 64-64 64z m0-100c-20 0-36 16-36 36 0 19 16 35 36 35 19 0 35-16 35-35s-16-36-35-36z m602 100c-35 0-64-29-64-64 0-36 29-64 64-64s64 28 64 64-29 64-64 64z m0-100c-20 0-36 16-36 36 0 19 16 35 36 35 20 0 36-16 36-35s-16-36-36-36z m-85 30h-430c-5 0-9-4-9-9v-4c0-5 4-9 9-9h430c5 0 9 4 9 9v4c0 5-4 9-9 9z m219 180c0 14-1 29-4 43-5 20-12 41-20 61-5 12-14 19-29 19-166-1-333-1-499-1-10 0-21 1-31 0-7-1-15-2-21-6-19-13-39-26-56-42-28-28-54-59-81-88-2-2-5-3-7-4-30-6-59-15-87-27-24-11-36-30-38-55-3-22-1-45-1-67 0-5 2-7 7-7 11 0 21 0 32 0h26c3 43 35 69 65 72 46 5 82-29 84-72 3 0 6 0 9 0 145 0 289 0 434 0 7 0 9 2 10 8 7 39 31 58 59 63 44 8 82-20 88-63 0-3 4-8 6-8 18 0 36 0 54 0 0 4 0 7 0 10 0 55 1 109 0 164z m-821-87c-3 0-7 0-11 0h-3c-13 0-16 4-13 16 1 2 4 4 7 4 7 1 14 0 21 0 7 0 5-6 6-11 0-5 0-9-7-9z m323 104c0-2 0-5 0-8h-178c0 2 0 4 1 5 22 24 42 50 70 68 9 6 19 10 30 10 23-1 45-1 67 0 8 0 11-2 10-10 0-22 0-43 0-65z m180-2c0-4-1-7-6-7-45 0-89 0-135 0 0 4-1 6-1 9 0 22 0 44 0 65 0 7 2 9 8 9 42 0 85 0 127 0 5 0 7-2 7-7 0-23 0-46 0-69z m158 3c1-6-2-9-9-9-41 0-82 0-123 0-6 0-8 2-8 8 0 22 0 45 0 67-1 7 3 8 8 8 21 0 42 0 62 0 21 0 41-1 61 0 7 0 10-2 9-9 0-22 0-43 0-65z m36-10c-20 0-19-3-19 19 1 19 1 37 0 55 0 7 2 9 9 9 23 0 46 0 69 0 6 1 9-2 10-7l13-60c1-4 2-9 4-16-30 0-58 0-86 0z" />
<glyph glyph-name="yacht" horiz-adv-x="1000" unicode="&#xee40;" d="M916 341l22 46h-231l-59 53h-331l-90 66-20 4 72-69h-72s0-29 108-26c52 5 91-102 43-96 0 0-172 1-186 0-28-2-53-53-68-91-1 1-8 2-36-1-8-3-5-20-5-20-4-10 28-17 28-17h673s217 126 152 151z m-339 30h-46l-82 44h136l-8-44z m24-3l9 47h17l56-47h-82z m154-20l-5 0-30 28h47l-12-28z m57 1c-13 0-29-1-44-1l11 27h45l-12-26z m49-1c-11 0-23 0-36 1l12 27h36l-12-28z m12-1l13 29h33l-14-32c-8 2-19 3-32 3z" />
</font>
</defs>
</svg>
